<?xml version="1.0" standalone="no"?>
<!DOCTYPE svg PUBLIC "-//W3C//DTD SVG 20010904//EN"
 "http://www.w3.org/TR/2001/REC-SVG-20010904/DTD/svg10.dtd">
<svg version="1.0" xmlns="http://www.w3.org/2000/svg"
 width="640.000000pt" height="579.000000pt" viewBox="0 0 640.000000 579.000000"
 preserveAspectRatio="xMidYMid meet">

<g transform="translate(0.000000,579.000000) scale(0.100000,-0.100000)"
fill="#000000" stroke="none">
<path d="M6103 5783 c9 -2 23 -2 30 0 6 3 -1 5 -18 5 -16 0 -22 -2 -12 -5z"/>
<path d="M6220 5780 c8 -5 24 -10 35 -10 17 0 17 2 5 10 -8 5 -24 10 -35 10
-17 0 -17 -2 -5 -10z"/>
<path d="M912 5686 c-49 -16 -82 -42 -82 -64 0 -10 5 -8 18 7 23 30 160 57
228 46 49 -8 49 -8 -81 -34 -71 -14 -140 -33 -153 -42 l-22 -16 19 -44 c18
-41 19 -63 15 -293 -3 -138 -7 -252 -10 -255 -5 -5 -20 13 -26 32 -2 4 -55 8
-119 9 -102 1 -121 -1 -162 -21 -57 -28 -78 -58 -44 -63 14 -2 20 -9 18 -18
-2 -8 -8 -47 -12 -87 -4 -40 -10 -77 -14 -83 -5 -8 -26 -9 -66 -5 -50 6 -60 4
-65 -10 -10 -25 6 -34 74 -41 57 -6 63 -9 60 -28 -3 -19 -8 -21 -75 -18 -48 2
-73 0 -73 -7 0 -7 25 -11 64 -11 67 0 86 -9 61 -30 -10 -8 -34 -10 -80 -5 -42
5 -65 4 -65 -3 0 -17 32 -23 85 -17 59 7 86 -5 66 -29 -10 -12 -32 -16 -87
-16 -47 0 -74 -4 -74 -11 0 -7 28 -10 82 -8 67 3 83 1 85 -11 7 -36 -11 -42
-69 -25 -53 15 -88 13 -88 -6 0 -5 16 -9 36 -9 20 0 54 -5 76 -12 36 -10 39
-14 36 -42 -3 -28 -6 -31 -38 -30 -19 1 -47 3 -62 5 -15 2 -28 0 -30 -6 -2 -6
25 -11 65 -13 60 -3 67 -5 67 -23 0 -19 -4 -20 -65 -14 -45 5 -65 4 -65 -4 0
-7 21 -11 53 -11 64 0 77 -8 66 -37 -9 -25 -27 -28 -79 -13 -36 10 -70 5 -70
-11 0 -5 34 -9 76 -9 l75 0 -3 -27 c-3 -27 -6 -28 -55 -28 -28 0 -55 -3 -59
-7 -4 -5 20 -8 54 -8 57 0 62 -2 68 -25 12 -49 0 -58 -70 -50 -39 4 -66 3 -70
-4 -9 -15 29 -23 87 -19 52 3 52 3 52 -27 0 -30 -1 -30 -50 -27 -77 4 -90 -11
-15 -18 53 -4 65 -8 68 -24 5 -26 -15 -36 -75 -36 -29 0 -53 -4 -53 -9 0 -5
23 -7 53 -4 41 4 56 2 66 -11 19 -23 -11 -32 -62 -19 -40 11 -67 8 -67 -7 0
-8 31 -14 110 -22 17 -2 25 -9 25 -23 0 -17 -8 -20 -55 -23 -30 -2 -59 -8 -65
-14 -7 -7 8 -9 52 -4 64 6 84 -2 58 -24 -8 -7 -36 -10 -67 -8 -29 1 -55 -1
-58 -7 -3 -6 23 -11 68 -13 62 -2 72 -5 72 -21 0 -33 -24 -42 -93 -35 -43 4
-67 3 -71 -5 -5 -8 10 -11 51 -11 82 0 105 -8 101 -34 -3 -18 -9 -21 -43 -18
-22 2 -51 4 -65 5 -14 1 -26 -2 -28 -8 -1 -5 17 -11 40 -13 64 -4 88 -11 88
-27 0 -23 -19 -27 -71 -15 -34 9 -54 9 -61 2 -14 -14 26 -25 90 -24 48 1 52 0
52 -22 0 -31 -16 -36 -98 -29 -47 4 -71 2 -76 -6 -5 -8 9 -11 46 -11 29 0 70
-3 91 -7 31 -5 38 -9 35 -27 -3 -20 -8 -21 -92 -17 -63 2 -87 0 -82 -8 4 -6
33 -11 66 -11 32 0 71 -5 87 -11 26 -10 27 -11 9 -24 -13 -10 -37 -12 -87 -8
-49 4 -69 3 -69 -6 0 -7 27 -11 80 -11 46 0 80 -4 80 -10 0 -12 -39 -22 -76
-19 -44 3 -74 0 -74 -8 0 -5 35 -8 77 -8 77 0 78 0 78 -25 0 -24 -2 -25 -75
-28 -99 -4 -113 -20 -17 -18 79 1 93 -4 84 -29 -5 -11 -24 -15 -84 -17 l-78
-2 80 -5 c62 -5 80 -9 80 -21 0 -12 -17 -16 -77 -18 -43 -2 -78 -6 -78 -10 0
-4 35 -7 77 -7 63 0 78 -3 78 -15 0 -12 -19 -16 -87 -20 -121 -7 -133 -25 -18
-25 116 0 119 -18 3 -25 -62 -4 -88 -9 -91 -19 -3 -10 0 -12 14 -6 33 13 176
15 171 2 -2 -7 -34 -14 -75 -18 -102 -8 -101 -19 2 -19 78 0 87 -2 84 -17 -3
-15 -17 -19 -73 -24 -70 -5 -115 -21 -115 -39 0 -14 12 -12 34 5 27 20 146 21
146 1 0 -25 -25 -35 -99 -42 -39 -4 -74 -11 -77 -15 -7 -12 13 -11 96 3 61 11
73 10 80 -2 21 -32 10 -36 -115 -36 -76 0 -130 -5 -136 -11 -8 -8 23 -11 109
-10 84 2 125 -2 133 -10 7 -7 9 -16 5 -20 -4 -5 -68 -10 -141 -13 -87 -3 -138
-9 -146 -17 -19 -19 -2 -28 26 -15 32 15 265 16 265 2 0 -17 -52 -24 -177 -25
-68 0 -123 -3 -123 -6 0 -14 71 -19 185 -13 114 7 119 6 105 -10 -13 -16 -31
-18 -167 -15 -84 2 -153 1 -153 -3 0 -5 10 -8 23 -8 12 -1 82 -2 154 -3 134
-3 159 -10 148 -40 -6 -14 -10 -14 -40 -1 -19 8 -57 14 -85 14 -53 0 -183 -24
-228 -42 -46 -18 -5 -20 55 -3 75 22 253 26 276 6 37 -30 18 -33 -136 -26
-127 6 -159 4 -190 -9 -20 -8 -37 -20 -37 -25 0 -14 1 -14 44 4 30 13 63 14
182 9 133 -7 167 -14 149 -32 -4 -4 -68 -7 -143 -8 -131 -1 -212 -14 -212 -35
0 -12 13 -12 26 1 6 6 50 10 100 10 49 0 100 0 114 1 66 5 105 3 110 -6 3 -6
-54 -13 -155 -17 -179 -8 -225 -14 -225 -30 0 -6 -8 -20 -17 -31 -18 -19 -17
-20 9 -13 21 5 30 2 38 -13 15 -29 69 -35 191 -22 92 10 114 9 144 -3 19 -8
35 -17 35 -20 0 -3 -58 -3 -128 1 -149 7 -222 -1 -222 -24 0 -11 6 -14 23 -10
78 20 75 21 91 -11 9 -17 16 -33 16 -36 0 -3 -20 -14 -45 -25 -25 -11 -45 -21
-45 -23 0 -5 62 -7 265 -7 184 -1 239 -9 206 -30 -8 -5 -24 -6 -36 -1 -12 5
-53 4 -91 -1 -38 -5 -123 -6 -189 -3 -79 4 -128 2 -145 -5 l-25 -11 27 5 c15
3 30 1 33 -5 4 -6 -6 -10 -23 -10 -16 0 -36 -7 -43 -16 -12 -15 -10 -16 16
-11 64 13 397 8 411 -6 9 -9 7 -9 -206 -11 -172 -2 -220 -9 -220 -28 0 -6 8
-7 18 -3 32 12 357 19 378 7 16 -9 33 3 124 91 57 56 113 116 123 132 11 17
41 53 68 82 27 28 56 70 65 92 9 24 29 49 45 58 16 10 29 23 29 30 0 7 18 31
39 53 22 23 45 54 51 71 7 16 29 43 49 61 20 18 36 37 36 42 0 6 48 81 106
166 58 85 118 176 133 202 15 25 34 52 43 60 9 7 43 54 76 103 32 50 67 99 77
110 22 24 174 254 212 322 16 26 32 55 37 63 5 8 21 40 36 70 14 30 40 70 56
89 28 30 34 32 55 22 14 -6 44 -11 68 -11 24 0 81 -6 127 -14 55 -9 161 -13
309 -12 198 2 236 4 315 24 130 33 214 39 269 18 62 -24 119 -84 151 -161 l28
-65 -22 -23 c-11 -13 -18 -26 -15 -30 4 -3 -12 -35 -34 -69 -23 -35 -58 -99
-78 -143 -20 -44 -44 -89 -54 -100 -29 -34 -130 -207 -130 -224 0 -9 -18 -43
-41 -76 -22 -33 -65 -103 -96 -155 -31 -52 -77 -124 -101 -159 -24 -36 -64
-105 -89 -155 -53 -106 -103 -187 -146 -235 -16 -19 -40 -58 -52 -85 -13 -28
-54 -94 -92 -146 -38 -52 -78 -120 -89 -150 -11 -30 -49 -101 -84 -158 -61
-98 -65 -102 -80 -83 -8 11 -31 26 -51 34 -20 8 -62 38 -92 65 -98 89 -61 82
-448 78 -189 -2 -447 -1 -574 4 -249 8 -307 20 -344 66 -18 23 -23 23 -189 26
-127 2 -174 0 -183 -10 -10 -10 21 -12 157 -12 204 -1 199 -15 -9 -23 -180 -8
-234 -26 -77 -27 58 0 130 4 162 9 61 10 110 5 86 -10 -7 -5 -62 -9 -123 -9
-141 0 -183 -7 -190 -31 -4 -11 -13 -19 -21 -19 -8 0 -14 -3 -14 -8 0 -7 201
1 288 12 52 7 88 -5 55 -19 -10 -4 -45 -9 -78 -10 -33 -1 -99 -6 -148 -10 -73
-6 -86 -10 -76 -21 9 -11 7 -14 -9 -14 -12 0 -23 -3 -26 -8 -2 -4 45 -6 105
-4 118 5 180 -4 144 -18 -11 -5 -60 -9 -110 -10 -50 -2 -103 -6 -120 -11 -17
-4 32 -5 113 -2 117 5 142 3 142 -8 0 -12 -27 -14 -142 -14 -100 0 -149 -4
-163 -13 -17 -11 0 -12 106 -8 122 4 167 -2 138 -20 -14 -8 -34 -10 -197 -18
-46 -2 -86 -7 -90 -11 -4 -4 57 -5 136 -3 78 3 142 2 142 -1 0 -19 -26 -28
-65 -23 -52 5 -203 -16 -212 -31 -4 -6 4 -8 23 -4 81 18 172 26 199 19 l30 -8
-28 -19 c-19 -12 -57 -21 -113 -25 -47 -4 -90 -12 -96 -18 -15 -15 10 -16 71
-1 37 8 47 7 63 -8 11 -9 17 -25 15 -35 -3 -10 2 -19 12 -22 9 -3 -7 -4 -36
-2 -28 2 -58 -1 -65 -6 -20 -13 699 13 720 26 5 3 47 1 94 -4 47 -5 197 -5
339 0 236 7 322 2 234 -14 -70 -14 -399 -24 -648 -21 -190 3 -225 2 -142 -5
61 -4 335 -10 610 -14 477 -6 545 -9 545 -26 0 -20 -475 -20 -631 1 -58 8
-129 8 -225 2 -141 -9 -646 0 -719 12 -28 5 -37 4 -30 -4 19 -20 201 -30 625
-35 339 -4 435 -8 473 -20 49 -16 200 -26 426 -29 85 -1 126 -6 128 -14 3 -7
16 -10 36 -6 18 2 63 -2 100 -11 38 -9 83 -16 100 -15 29 1 28 2 -13 11 -44
11 -45 11 -16 19 16 4 51 4 79 -2 27 -5 65 -9 83 -9 19 0 34 -4 34 -9 0 -16
-38 -23 -82 -16 -25 5 -38 4 -35 -2 4 -6 -25 -12 -71 -15 -132 -8 -742 19
-896 41 -43 6 -90 6 -125 0 -31 -5 -132 -9 -226 -10 -93 0 -161 -4 -150 -8 10
-4 140 -6 288 -4 150 2 266 0 263 -5 -7 -12 688 -33 1181 -36 227 -1 415 -5
419 -9 4 -4 -19 -8 -52 -8 -32 -1 -183 -5 -334 -9 l-275 -7 325 0 c477 0 734
-15 634 -37 -17 -4 -213 -5 -435 -4 -338 3 -409 1 -423 -11 -23 -19 -300 -34
-516 -28 -120 3 -154 2 -125 -5 41 -10 403 -4 830 13 121 5 331 11 466 13 135
1 250 6 256 9 12 8 83 -13 83 -25 0 -4 -89 -9 -197 -10 l-198 -1 185 -7 c102
-4 200 -11 219 -15 21 -5 35 -4 40 3 4 7 19 5 46 -8 l40 -18 -190 -3 -190 -3
187 -6 c102 -3 189 -8 192 -11 3 -3 -97 -12 -222 -20 -170 -10 -374 -13 -817
-9 -942 8 -1276 6 -1423 -10 -72 -7 -130 -15 -128 -18 3 -2 123 4 268 13 234
16 300 17 593 6 530 -19 1262 -17 1489 4 130 12 190 14 195 7 4 -7 40 -9 106
-4 55 3 92 8 83 10 -37 7 -16 17 29 13 40 -3 44 -5 27 -14 -17 -10 -13 -13 26
-20 25 -4 64 -8 87 -7 23 0 44 -4 48 -10 3 -5 29 -10 56 -10 44 0 54 5 93 40
l43 40 189 0 c236 0 588 16 758 35 142 15 188 31 61 21 -324 -26 -1015 -54
-1015 -42 0 4 12 29 26 56 l26 50 107 0 c58 0 113 -5 121 -10 8 -5 12 -10 8
-11 -5 -1 -12 -3 -18 -4 -5 -1 -58 -4 -117 -5 l-108 -3 140 -9 c148 -9 276 -4
303 12 12 6 -4 7 -49 3 -40 -3 -69 -2 -72 4 -4 6 61 15 176 23 100 6 247 18
327 25 l145 14 -150 -6 c-195 -7 -230 -7 -355 2 -68 5 -98 11 -85 16 11 4 36
8 55 8 26 1 31 4 20 11 -8 5 -11 12 -7 16 4 4 98 11 209 16 112 5 257 12 323
17 l120 8 -180 1 c-99 0 -222 -3 -273 -6 -50 -4 -92 -6 -92 -4 0 1 7 18 14 37
17 39 9 38 231 40 258 3 614 19 608 28 -3 5 -110 6 -279 2 -191 -5 -274 -4
-274 3 0 18 97 48 270 85 91 20 200 47 244 61 43 14 93 26 111 26 18 0 104 18
191 40 88 22 169 38 181 35 12 -3 48 7 85 25 34 16 77 30 95 30 39 0 83 16 83
30 0 16 -58 12 -135 -9 -139 -37 -371 -91 -415 -97 -45 -5 -99 -19 -220 -55
-36 -11 -102 -26 -147 -34 -45 -8 -90 -18 -100 -23 -10 -6 -40 -13 -68 -17
-27 -3 -81 -20 -118 -38 -58 -27 -70 -29 -77 -17 -6 8 -10 21 -10 28 0 21 82
51 164 62 42 5 88 16 104 23 34 18 86 30 237 57 164 29 373 83 470 120 80 31
257 78 328 87 66 9 42 26 -26 19 l-64 -7 -26 59 c-31 68 -34 97 -11 106 9 3
57 7 107 7 l92 2 -92 7 c-50 5 -96 11 -102 15 -17 10 -13 37 10 61 16 17 28
21 54 17 44 -7 108 14 101 34 -3 8 -6 20 -6 26 0 6 -13 -1 -28 -16 -34 -33
-51 -34 -87 -6 -24 19 -35 21 -98 16 -40 -4 -119 -18 -177 -32 -58 -14 -152
-30 -210 -35 -58 -4 -175 -19 -260 -33 -85 -14 -202 -30 -260 -37 -182 -20
-249 -36 -272 -65 -22 -28 -65 -34 -74 -10 -5 12 -30 15 -139 15 -75 0 -136 4
-140 10 -11 17 298 87 335 75 11 -3 33 1 50 10 40 21 136 33 126 17 -4 -7 -17
-12 -29 -12 -28 0 -100 -20 -94 -26 2 -2 35 2 73 10 38 8 160 24 271 36 111
11 224 27 250 35 26 9 107 20 178 26 169 13 196 18 194 32 -3 20 12 47 27 47
8 0 14 3 14 8 0 4 -19 7 -43 7 -23 1 -55 4 -70 8 -24 7 -27 10 -16 23 8 10 20
13 33 9 12 -4 73 -11 136 -15 63 -5 153 -12 199 -16 69 -6 83 -4 79 7 -5 16
-67 24 -270 36 -72 5 -132 13 -139 20 -9 9 -6 29 10 81 11 39 21 82 21 96 0
25 1 26 73 27 39 1 99 5 132 9 47 7 31 8 -75 7 l-135 -2 -9 37 c-5 21 -6 41
-2 45 4 4 60 7 126 8 65 0 122 4 127 9 4 4 -19 5 -52 2 -72 -7 -50 7 36 24 31
6 65 18 75 26 17 13 14 14 -41 11 -33 -2 -94 -11 -135 -20 -41 -9 -136 -25
-210 -37 -74 -12 -160 -28 -190 -35 -31 -8 -104 -21 -163 -29 -58 -9 -137 -23
-174 -31 -37 -9 -102 -20 -144 -25 -42 -5 -116 -20 -165 -34 -48 -14 -103 -26
-121 -26 -19 0 -50 -7 -70 -15 -19 -8 -49 -15 -66 -15 -29 0 -30 1 -13 19 27
30 77 50 204 83 72 18 131 28 154 25 21 -3 41 -1 44 4 3 5 21 9 40 9 19 0 50
6 68 14 35 15 212 48 356 66 47 6 177 32 290 56 113 25 229 48 258 51 29 3 55
10 58 14 3 5 16 9 30 9 17 0 27 8 35 27 7 18 13 23 20 16 8 -8 8 -17 1 -30
-10 -17 -7 -18 24 -15 38 5 38 5 24 33 -13 23 -52 44 -100 54 -19 4 -46 14
-58 22 l-24 15 22 23 21 22 -35 21 c-39 23 -46 51 -21 72 11 9 14 22 10 41
l-6 28 78 -4 c67 -4 71 -3 28 4 -75 12 -93 20 -100 41 -9 29 42 88 87 101 23
6 47 22 60 39 18 25 29 30 64 30 24 0 46 5 50 12 5 8 -8 10 -50 5 -52 -5 -61
-3 -100 24 l-42 30 -235 9 c-129 6 -274 15 -324 21 -99 11 -139 14 -200 11
-22 -1 -83 3 -135 9 -52 6 -122 12 -155 14 -33 3 -81 9 -108 15 -101 21 -151
4 -54 -19 55 -14 201 -30 303 -35 34 -2 68 -7 75 -12 8 -4 75 -7 150 -5 117 2
144 0 200 -19 48 -17 77 -21 119 -16 79 8 214 8 292 0 53 -5 74 -13 100 -35
25 -21 30 -30 22 -39 -9 -9 -17 -9 -32 -1 -11 6 -39 11 -62 11 -51 0 -691
-152 -775 -185 -114 -43 -385 -93 -385 -70 0 4 7 19 16 35 15 25 25 29 103 39
107 15 146 35 51 27 -36 -4 -82 -9 -103 -12 -38 -6 -38 -6 -35 22 3 27 6 29
50 29 25 0 50 3 54 8 4 4 -11 7 -33 7 -22 0 -43 3 -46 6 -3 4 7 32 23 63 30
56 37 104 21 130 -5 8 -32 16 -62 18 -76 6 -95 11 -113 29 -14 14 -14 19 -1
51 31 73 15 89 -100 108 -49 8 -114 24 -143 35 -29 11 -66 20 -82 20 -17 0
-52 11 -78 24 -64 32 -148 58 -335 105 -87 22 -194 57 -239 77 -110 49 -222
64 -305 41 -31 -9 -60 -13 -64 -9 -14 16 -39 113 -59 231 -15 95 -30 145 -60
211 -31 67 -40 99 -40 141 0 33 -7 70 -19 94 -24 50 -61 181 -61 217 0 48 -36
114 -75 138 -36 22 -41 23 -115 11 -67 -10 -84 -9 -126 5 -42 14 -57 15 -115
4 -51 -10 -70 -10 -88 0 -21 11 -350 33 -360 24 -23 -22 114 -42 293 -43 50
-1 75 -6 88 -17 16 -16 21 -15 64 3 41 18 50 19 72 7 42 -22 103 -27 193 -15
l84 10 30 -30 c28 -27 30 -34 31 -107 0 -62 8 -98 38 -186 30 -84 37 -118 32
-148 -5 -32 0 -51 34 -116 22 -43 45 -105 50 -138 6 -32 22 -119 37 -192 l25
-133 -23 -17 c-13 -9 -52 -41 -87 -70 -35 -30 -64 -52 -65 -50 -1 1 -15 30
-31 63 -83 176 -192 218 -416 160 -71 -18 -98 -21 -108 -13 -9 8 -16 9 -20 1
-8 -13 -212 -33 -264 -26 -50 7 -64 25 -38 48 11 10 20 24 20 31 0 7 9 16 20
19 34 11 44 41 23 70 -22 30 -42 31 -126 5 -49 -15 -72 -28 -87 -50 -24 -34
-50 -39 -50 -11 0 41 137 130 180 116 11 -4 20 -2 20 4 0 6 -17 11 -39 11 -29
0 -55 -11 -100 -41 -67 -45 -87 -45 -55 -1 37 49 194 117 194 83 0 -7 4 -9 10
-6 6 3 10 13 10 21 0 10 -12 14 -41 14 -46 0 -64 -8 -137 -63 -29 -22 -54 -38
-56 -36 -8 10 -26 101 -26 133 0 40 31 71 112 112 39 20 52 22 69 13 17 -9 20
-8 17 3 -7 20 -62 21 -100 2 -18 -9 -48 -30 -67 -47 l-34 -29 -12 23 c-7 13
-15 37 -19 53 -5 22 -4 27 7 23 7 -3 28 10 45 28 36 37 130 76 161 68 24 -6
29 14 6 23 -23 9 -112 -25 -161 -62 -24 -19 -46 -34 -49 -34 -3 0 -5 11 -5 24
0 30 35 59 98 82 26 10 51 21 57 26 5 4 24 8 42 8 18 0 33 5 33 11 0 21 -88 3
-154 -31 -71 -37 -95 -38 -70 -2 21 30 79 59 137 67 64 10 61 29 -3 23 -36 -4
-64 -15 -96 -37 -52 -38 -75 -37 -44 1 26 34 124 80 155 72 27 -7 44 14 24 27
-22 15 -72 3 -126 -30 -28 -17 -55 -31 -62 -31 -20 0 -11 19 22 44 29 22 63
34 152 52 26 5 28 7 12 16 -25 13 -100 -6 -149 -38 -21 -13 -42 -24 -47 -24
-61 0 92 109 164 117 30 4 45 10 45 20 0 29 -109 -8 -195 -66 -16 -12 -33 -21
-37 -21 -15 0 -8 37 10 53 26 23 110 57 143 57 16 0 29 5 29 10 0 23 -75 9
-138 -25 -35 -20 -66 -34 -69 -32 -9 10 52 48 109 68 67 25 82 39 41 39 -34 0
-103 -31 -122 -53 -7 -10 -18 -17 -23 -17 -15 0 12 29 56 62 21 15 51 28 66
28 15 0 33 6 39 14 16 19 62 29 74 17 13 -13 47 -14 47 -2 0 21 -33 41 -66 41
-48 0 -86 -18 -193 -90 -78 -54 -91 -66 -86 -84 20 -65 24 -104 23 -202 -1
-82 2 -118 15 -145 13 -30 15 -48 7 -95 -6 -36 -6 -72 0 -94 5 -19 8 -87 7
-150 -1 -94 2 -121 16 -148 34 -64 -1 -76 -91 -33 -33 15 -34 15 -53 -9 -11
-14 -36 -54 -56 -90 -82 -147 -75 -165 -68 185 4 171 7 326 8 345 0 19 -4 116
-10 215 -7 114 -8 220 -3 290 5 61 9 163 9 228 1 140 3 138 -129 126 -197 -17
-226 -6 -68 26 59 12 102 15 135 10 26 -4 84 -10 128 -15 44 -4 118 -15 165
-25 47 -9 128 -19 180 -21 52 -1 142 -8 200 -14 172 -19 286 -23 311 -9 20 10
25 8 42 -15 17 -24 37 -27 37 -6 0 27 -34 40 -103 40 -40 1 -153 11 -252 23
l-180 23 -3 87 c-4 114 -6 116 -187 128 -75 5 -144 13 -155 19 -10 5 -36 10
-58 10 -21 0 -65 9 -97 20 -32 11 -70 20 -84 20 -14 0 -53 9 -86 19 -33 10
-94 21 -135 25 -100 9 -214 28 -220 37 -3 4 -66 10 -140 13 -102 5 -145 3
-178 -8z m506 -67 c81 -11 156 -26 167 -33 11 -8 49 -17 85 -21 35 -4 87 -15
115 -25 27 -9 100 -20 160 -24 124 -8 215 -22 251 -38 22 -10 24 -16 24 -90 0
-74 -1 -78 -22 -79 -43 -3 -93 3 -187 22 -51 10 -119 19 -152 19 -32 0 -61 5
-64 10 -10 16 -81 12 -211 -11 -68 -11 -132 -29 -150 -40 -28 -17 -33 -26 -38
-77 -3 -31 -3 -185 -1 -342 3 -157 5 -303 4 -325 -1 -22 -1 -53 -1 -70 0 -16
1 -46 1 -65 0 -94 3 -323 7 -485 6 -260 3 -488 -6 -504 -14 -25 -19 37 -17
196 2 187 -7 237 -17 88 -4 -65 -2 -159 5 -230 6 -66 8 -157 4 -201 -4 -54 -3
-84 4 -88 6 -4 -36 -76 -105 -180 l-116 -173 -37 9 c-65 17 -95 19 -151 9 -54
-10 -53 -10 19 -4 53 4 72 2 67 -6 -4 -6 -20 -11 -35 -11 -16 0 -47 -7 -70
-15 -43 -15 -43 -15 -53 25 -3 8 -10 -13 -17 -47 -10 -44 -10 -66 -2 -81 8
-15 7 -31 -5 -66 -27 -80 -38 -69 -31 34 4 51 7 115 7 141 0 46 1 48 28 47 15
-1 54 6 87 15 79 23 127 22 158 -3 23 -19 25 -19 33 -2 4 9 9 85 11 167 2 83
5 164 5 180 1 17 0 46 0 65 -1 19 0 159 2 310 2 151 -1 289 -6 306 -6 22 -3
45 11 86 15 44 17 65 10 95 -14 59 -21 414 -8 430 14 16 4 46 -13 41 -12 -4
-18 -45 -21 -133 0 -16 3 -65 8 -107 l8 -78 -117 0 -117 0 3 27 c5 41 39 54
131 51 42 -2 77 0 77 4 0 14 -52 21 -126 16 l-75 -5 3 41 3 41 85 -2 c83 -3
84 -3 56 13 -20 11 -45 15 -83 12 -58 -5 -73 6 -73 51 0 20 6 21 101 21 64 0
98 4 94 10 -3 6 -50 10 -106 10 l-100 0 3 37 c3 32 7 38 34 45 18 4 59 4 93 0
34 -5 61 -5 61 0 0 17 -57 30 -117 26 -35 -2 -63 0 -63 4 0 4 9 17 21 29 18
18 28 20 83 14 42 -5 66 -3 70 4 10 15 -30 23 -103 19 -58 -3 -64 -1 -72 20
-7 19 -4 24 19 34 15 6 66 12 115 12 86 0 112 9 61 22 -26 7 -109 1 -171 -12
-32 -6 -33 -6 -33 29 0 43 7 46 126 57 47 4 87 10 91 13 15 16 -36 19 -113 7
-103 -15 -98 -16 -102 13 -3 22 2 25 44 31 26 3 72 6 103 6 45 1 52 3 37 11
-12 8 -49 9 -107 4 -85 -6 -89 -6 -89 14 0 32 32 42 140 42 101 1 131 12 64
25 -34 6 -104 1 -172 -12 -40 -8 -42 7 -6 43 25 25 29 25 110 20 46 -2 84 -3
84 -2 0 2 -7 11 -16 19 -13 14 -30 15 -95 10 -67 -6 -79 -5 -79 8 0 20 21 28
92 37 47 6 58 4 63 -8 5 -13 7 -13 15 -1 17 28 -2 33 -98 26 l-95 -7 7 47 c3
26 6 61 6 79 0 30 3 33 38 40 20 4 57 6 82 6 58 -1 93 7 84 20 -4 6 -20 8 -40
4 -26 -4 -36 -2 -40 10 -4 10 -10 12 -18 7 -6 -5 -32 -12 -58 -15 l-47 -7 6
33 c3 17 9 35 12 40 4 4 58 10 121 14 101 6 111 8 94 20 -19 15 -97 13 -181
-3 -22 -4 -33 -2 -33 5 0 20 51 32 149 34 l96 2 12 -90 c12 -89 10 -121 -16
-220 -13 -51 -14 -95 -1 -95 6 0 10 16 10 35 0 33 14 48 22 23 4 -11 8 75 9
167 0 94 -8 154 -24 179 -16 24 -23 26 -85 26 -37 0 -92 -6 -122 -14 -53 -14
-80 -12 -80 5 0 19 42 28 131 27 53 -1 113 4 137 12 40 13 42 15 36 43 -6 28
-5 29 21 23 15 -4 93 -16 173 -27z m-274 -5 c9 -3 16 -10 16 -14 0 -11 -64
-20 -92 -12 -22 5 -22 6 7 18 34 15 47 16 69 8z m-188 -29 c-25 -19 -36 -19
-36 0 0 10 10 15 28 15 26 -1 26 -1 8 -15z m-30 -111 c-5 -13 -10 -14 -18 -6
-6 6 -8 18 -4 28 5 13 10 14 18 6 6 -6 8 -18 4 -28z m-15 -227 c-13 -13 -15
11 -4 40 7 16 8 15 11 -6 2 -13 -1 -28 -7 -34z m590 13 c-27 -24 -41 -25 -41
-6 0 16 15 24 45 25 19 0 18 -1 -4 -19z m272 -52 l-6 -48 -61 0 c-33 0 -99 -7
-146 -15 -111 -20 -110 -20 -110 14 0 56 44 89 140 105 33 5 34 5 16 -9 -11
-8 -25 -15 -32 -15 -17 0 -87 -30 -81 -36 2 -2 46 7 96 22 68 19 96 23 104 15
18 -18 37 -13 49 14 19 41 38 11 31 -47z m-853 -77 c0 -11 -4 -22 -9 -25 -11
-7 -20 14 -13 32 7 19 22 14 22 -7z m842 -41 c-2 -19 -3 -131 -3 -247 l-1
-213 -79 0 c-89 0 -162 -15 -180 -36 -14 -17 -6 -17 44 -3 21 6 79 14 128 18
l89 7 1 -41 c6 -147 8 -374 4 -392 -4 -18 -10 -20 -42 -16 -42 5 -202 -22
-217 -37 -14 -14 28 -12 99 5 33 8 81 15 108 15 l47 0 0 -152 c0 -161 -12
-263 -35 -308 -13 -25 -20 -27 -91 -33 -42 -3 -82 -11 -88 -18 -8 -9 -3 -10
24 -5 112 19 120 19 120 4 0 -8 -23 -47 -50 -86 -39 -55 -56 -72 -75 -72 -13
0 -36 -5 -50 -10 -15 -6 -31 -7 -36 -4 -18 11 12 34 58 45 24 6 46 15 49 20 8
13 -18 11 -65 -6 -37 -13 -43 -13 -47 0 -16 41 27 66 118 68 47 1 55 4 45 15
-11 14 -80 12 -134 -4 -20 -6 -23 -3 -23 24 0 27 5 32 38 42 20 6 72 14 114
17 43 3 75 10 72 14 -8 14 -126 10 -177 -5 -25 -7 -48 -11 -51 -8 -4 3 -6 20
-6 38 l0 32 127 7 c104 6 124 10 110 20 -13 9 -31 10 -68 3 -69 -13 -164 -5
-164 13 0 10 33 20 117 34 110 19 160 35 107 35 -36 0 -189 -19 -210 -25 -15
-5 -19 -1 -19 18 0 31 11 35 123 47 49 5 92 11 94 14 13 13 -53 17 -110 7 -96
-17 -107 -15 -107 14 0 19 7 26 38 34 20 6 62 11 93 11 70 0 120 10 113 21 -7
13 -123 11 -184 -2 -58 -12 -66 -9 -51 19 14 25 47 33 150 34 77 0 101 8 65
22 -26 10 -106 6 -167 -9 -46 -11 -59 -11 -63 -1 -3 7 -3 61 -2 121 l3 108 65
19 c43 13 84 18 121 15 54 -5 91 4 76 19 -14 15 -143 5 -201 -15 -71 -25 -66
-25 -66 -1 0 11 11 27 24 35 34 22 209 57 217 43 8 -12 39 -3 39 11 0 27 -75
22 -213 -16 -31 -9 -59 -14 -61 -12 -2 2 -6 162 -7 354 l-4 350 65 12 c36 6
106 10 155 10 l90 -2 -3 -35z m-1072 -90 c-20 -13 -144 -34 -161 -27 -9 3 -1
10 21 20 38 18 166 24 140 7z m210 -21 c0 -11 -4 -17 -10 -14 -5 3 -10 13 -10
21 0 8 5 14 10 14 6 0 10 -9 10 -21z m-100 2 c0 -17 -16 -21 -69 -14 -34 4
-48 9 -39 14 18 12 108 11 108 0z m-125 -41 c-7 -12 -66 -23 -96 -18 l-24 5
25 11 c31 13 103 16 95 2z m90 -20 c19 0 48 -31 38 -41 -11 -11 -253 -21 -253
-10 0 19 32 33 102 46 40 7 79 11 86 9 8 -2 20 -4 27 -4z m145 -20 c0 -11 -4
-20 -10 -20 -5 0 -10 9 -10 20 0 11 5 20 10 20 6 0 10 -9 10 -20z m-107 -47
c4 -3 2 -12 -4 -20 -13 -15 -189 -19 -189 -4 0 21 175 43 193 24z m-33 -53
c13 -9 13 -11 0 -20 -8 -5 -20 -8 -27 -5 -6 2 -29 7 -50 11 -35 7 -36 8 -13
15 37 10 73 10 90 -1z m50 -48 c0 -7 -7 -15 -15 -18 -9 -4 -13 -13 -10 -23 3
-9 7 -35 9 -58 2 -23 7 -46 10 -52 4 -5 -3 -12 -14 -16 -23 -7 -27 -30 -5 -39
8 -3 15 -12 15 -21 0 -13 -12 -15 -82 -9 -46 4 -88 11 -95 16 -7 6 -13 4 -16
-4 -3 -9 -11 -7 -28 9 -13 11 -33 23 -44 25 -17 4 -14 7 15 20 34 16 34 16 8
17 -41 1 -42 18 -3 31 42 14 46 37 8 42 l-28 4 30 14 c35 15 148 19 185 6 l25
-9 -20 22 c-17 20 -26 22 -77 16 -63 -8 -138 1 -138 16 0 19 45 26 157 25 85
-1 113 -4 113 -14z m100 -22 c0 -11 -4 -20 -10 -20 -5 0 -10 9 -10 20 0 11 5
20 10 20 6 0 10 -9 10 -20z m-460 0 c0 -5 -9 -10 -20 -10 -11 0 -20 5 -20 10
0 6 9 10 20 10 11 0 20 -4 20 -10z m110 -20 c0 -11 -39 -24 -47 -16 -3 3 -3
12 0 20 6 15 47 11 47 -4z m1485 -42 c3 -24 8 -55 11 -70 3 -16 1 -28 -5 -28
-12 0 -17 19 -26 88 -8 63 10 73 20 10z m-1125 16 c0 -16 -23 -44 -35 -44 -15
0 -21 31 -8 43 8 8 43 9 43 1z m-360 -33 c0 -9 -24 -21 -41 -21 -5 0 -9 7 -9
15 0 9 9 15 25 15 14 0 25 -4 25 -9z m-25 -110 c19 -8 18 -9 -8 -21 -31 -15
-40 -11 -31 14 7 18 10 18 39 7z m233 -57 c12 -3 22 -14 22 -23 0 -9 6 -23 13
-30 10 -11 6 -12 -23 -6 -19 5 -75 7 -123 7 -71 -1 -88 1 -84 12 3 8 -2 24
-10 36 l-16 23 99 -6 c54 -3 109 -9 122 -13z m142 -14 c0 -19 -17 -36 -27 -26
-3 3 -2 17 1 31 7 28 26 25 26 -5z m-366 4 c23 -9 1 -34 -30 -34 -26 0 -27 1
-18 24 6 17 22 20 48 10z m372 -68 c7 -29 -11 -66 -31 -66 -11 0 -15 11 -15
38 0 21 3 42 7 45 14 14 33 6 39 -17z m-152 -29 c-1 -31 3 -38 22 -43 33 -9
38 -33 9 -44 -27 -10 -34 -30 -10 -30 21 0 19 -17 -4 -23 -26 -7 -35 -58 -10
-64 26 -7 24 -22 -3 -32 l-22 -8 22 -14 22 -14 -22 -17 -23 -18 28 0 c15 0 27
-5 27 -10 0 -6 -12 -15 -27 -21 l-28 -11 28 -10 c32 -11 35 -24 7 -33 -25 -8
-26 -21 -3 -29 36 -14 -12 -26 -105 -26 -133 0 -200 32 -125 61 25 9 23 29 -3
29 -19 0 -18 19 1 26 21 9 19 24 -4 24 -34 0 -31 16 5 33 41 20 37 37 -9 37
l-32 1 28 15 c15 8 27 19 27 23 0 5 -12 14 -27 19 l-28 10 33 13 c36 15 42 29
12 29 -27 0 -25 15 6 39 36 28 89 44 135 39 35 -3 38 -2 23 9 -27 20 -75 15
-126 -12 -30 -16 -49 -21 -53 -14 -4 6 1 17 11 25 18 13 18 14 -3 20 -73 20
48 64 167 61 l55 -2 -1 -38z m1315 -2 c15 -50 8 -74 -9 -31 -17 46 -23 76 -13
76 5 0 15 -20 22 -45z m-1549 25 c0 -12 -28 -25 -36 -17 -9 9 6 27 22 27 8 0
14 -5 14 -10z m374 -96 c7 -20 -2 -54 -14 -54 -12 0 -17 20 -12 47 5 27 17 30
26 7z m-390 -40 c0 -28 -5 -40 -17 -42 -14 -3 -17 4 -17 36 0 21 3 42 7 46 15
15 28 -3 27 -40z m625 -49 c17 -34 20 -157 7 -247 -8 -54 -11 -58 -35 -58 -27
0 -171 -36 -179 -45 -11 -11 44 -4 94 11 31 10 59 14 70 9 11 -4 27 -7 37 -6
15 2 18 -3 15 -26 l-3 -28 -105 -7 c-58 -3 -111 -8 -119 -10 -8 -2 -19 12 -27
32 -9 21 -12 25 -9 10 2 -14 5 -43 6 -65 0 -35 2 -37 11 -19 11 23 72 34 187
34 l56 0 3 -78 2 -77 -82 3 c-46 2 -107 0 -136 -6 -58 -10 -67 -5 -58 34 6 24
8 24 126 24 68 0 121 4 125 10 4 6 -9 10 -32 11 -21 0 -77 4 -125 7 -56 5 -89
3 -92 -3 -15 -44 -22 72 -11 205 7 80 19 107 36 77 9 -15 12 -15 24 -4 10 11
34 13 92 9 107 -6 86 18 -24 27 l-78 6 -3 37 c-4 45 3 47 118 47 110 -1 112
-1 105 11 -3 6 -50 10 -106 10 l-99 0 0 44 c0 53 3 55 115 53 78 -2 80 -3 94
-32z m-224 -4 c8 -25 -11 -71 -30 -71 -16 0 -21 43 -9 74 8 22 31 20 39 -3z
m-387 -33 c-5 -15 -48 -24 -48 -10 0 14 12 22 33 22 10 0 17 -5 15 -12z m2
-58 c0 -15 -38 -32 -45 -20 -3 5 -3 15 0 20 8 13 45 13 45 0z m1850 6 c0 -2
-29 -22 -65 -45 -63 -41 -85 -61 -68 -61 5 0 31 14 59 32 49 31 114 53 114 38
0 -4 -20 -26 -45 -49 -31 -28 -54 -41 -73 -41 -16 0 -44 -5 -62 -12 -29 -9
-35 -9 -47 7 -19 28 -17 32 32 68 57 40 155 81 155 63z m-1482 -48 c-2 -30 -8
-43 -18 -43 -10 0 -16 13 -18 43 -3 37 -1 42 18 42 19 0 21 -5 18 -42z m1226
5 c8 -52 8 -103 -1 -103 -5 0 -8 12 -9 28 0 15 -4 46 -9 70 -5 26 -4 42 2 42
6 0 13 -17 17 -37z m-1609 -33 c0 -7 -6 -15 -12 -17 -8 -3 -13 4 -13 17 0 13
5 20 13 18 6 -3 12 -11 12 -18z m3 -48 c2 -7 -3 -12 -12 -12 -9 0 -16 7 -16
16 0 17 22 14 28 -4z m299 -39 c-3 -3 -11 -2 -17 2 -9 6 -9 10 1 16 14 8 27
-7 16 -18z m1483 12 c0 -10 -11 -15 -35 -15 -40 0 -45 7 -12 20 33 13 47 12
47 -5z m-1772 -42 c2 -8 -5 -13 -17 -13 -12 0 -21 6 -21 16 0 18 31 15 38 -3z
m287 -13 c-3 -5 -10 -10 -16 -10 -5 0 -9 5 -9 10 0 6 7 10 16 10 8 0 12 -4 9
-10z m2875 -9 c30 -5 85 -22 123 -40 37 -17 93 -37 125 -45 32 -7 72 -21 89
-30 18 -9 47 -16 66 -16 36 0 138 -29 277 -79 47 -17 99 -31 115 -31 17 0 50
-10 75 -21 35 -16 185 -48 232 -49 10 0 -8 -56 -33 -104 -11 -22 -44 -72 -73
-111 -29 -38 -81 -119 -115 -180 -82 -143 -116 -198 -166 -265 -22 -30 -65
-102 -96 -160 -69 -131 -548 -890 -631 -999 -18 -25 -42 -63 -53 -85 -12 -23
-33 -62 -48 -87 -26 -44 -31 -47 -81 -53 -30 -4 -62 -13 -72 -21 -13 -9 -24
-10 -37 -3 -10 5 -62 13 -115 17 -57 5 -110 14 -129 24 -18 9 -39 17 -48 17
-29 0 -348 111 -375 130 -17 12 -60 24 -106 31 -84 11 -102 19 -196 79 -53 35
-69 40 -118 40 -72 0 -133 -31 -179 -91 -32 -42 -34 -42 -27 -14 4 17 29 64
57 106 27 41 49 83 49 93 0 25 28 74 76 134 23 29 46 62 50 75 4 12 20 37 35
55 16 18 41 56 55 85 15 29 50 86 77 127 28 41 76 119 107 172 118 206 193
332 228 381 20 28 62 98 93 156 31 58 102 187 159 286 57 99 115 203 131 230
46 83 153 173 274 232 58 28 77 33 110 28 22 -4 65 -10 95 -14z m-2957 -7 c27
-5 37 -11 35 -23 -1 -9 1 -22 6 -29 13 -22 -1 -26 -43 -13 -26 7 -74 9 -138 6
-90 -6 -96 -5 -79 9 11 9 24 16 29 16 4 0 5 9 2 20 -6 19 -2 20 72 20 43 0 95
-3 116 -6z m-215 -22 c2 -7 -3 -12 -12 -12 -9 0 -16 7 -16 16 0 17 22 14 28
-4z m192 -62 c53 -15 67 -27 52 -42 -18 -18 -15 -26 16 -42 23 -12 24 -15 10
-20 -50 -17 -53 -20 -20 -24 42 -4 41 -18 -4 -37 -43 -18 -40 -38 7 -46 l34
-5 -32 -20 c-40 -23 -42 -39 -6 -51 l28 -10 -28 -17 c-37 -25 -35 -46 4 -46
34 0 31 -16 -7 -30 -32 -13 -31 -34 1 -28 33 7 42 -8 14 -23 -17 -9 -19 -13
-8 -20 27 -18 -28 -38 -151 -57 l-65 -9 101 -2 c101 -1 101 -1 97 -25 -4 -17
0 -25 16 -29 12 -3 21 -10 21 -16 0 -17 -44 -23 -86 -12 -22 5 -72 13 -111 17
-70 6 -102 22 -88 44 3 5 15 10 26 10 24 0 24 4 -3 40 -18 25 -19 32 -8 45 11
14 8 20 -20 44 -25 20 -30 30 -21 36 8 4 16 2 21 -5 6 -10 9 -10 15 0 5 8 1
17 -10 22 -16 9 -15 13 11 34 l29 24 -22 19 c-22 18 -22 19 -3 36 16 14 18 21
8 32 -10 12 -9 17 5 24 22 13 22 29 0 29 -10 0 -24 4 -32 9 -11 7 -6 13 20 27
31 17 32 19 12 22 -13 2 -23 7 -23 11 0 4 10 13 23 19 l22 11 -22 7 c-31 9
-29 19 10 37 59 28 111 33 167 17z m-200 -10 c0 -5 -4 -10 -10 -10 -5 0 -10 5
-10 10 0 6 5 10 10 10 6 0 10 -4 10 -10z m298 -54 c3 -12 -1 -17 -10 -14 -7 3
-15 13 -16 22 -3 12 1 17 10 14 7 -3 15 -13 16 -22z m-293 -6 c-3 -5 -13 -10
-21 -10 -8 0 -14 5 -14 10 0 6 9 10 21 10 11 0 17 -4 14 -10z m0 -110 c-3 -5
-13 -10 -21 -10 -8 0 -14 5 -14 10 0 6 9 10 21 10 11 0 17 -4 14 -10z m291 -5
c-23 -17 -42 -19 -50 -6 -7 11 11 19 44 20 24 0 24 0 6 -14z m339 -15 c4 -6 4
-24 0 -40 -7 -30 -7 -30 -78 -30 -40 -1 -92 -5 -117 -10 -37 -7 -47 -6 -57 8
-12 15 -13 14 -13 -1 0 -9 -5 -17 -11 -17 -6 0 -8 7 -5 16 3 9 6 28 7 42 0 23
2 24 8 8 7 -19 8 -19 13 2 6 20 13 21 104 25 55 1 109 4 121 5 12 1 25 -3 28
-8z m-637 -32 c-6 -18 -28 -21 -28 -4 0 9 7 16 16 16 9 0 14 -5 12 -12z m308
-19 c10 -17 -12 -32 -36 -24 -17 5 -19 10 -9 21 14 17 35 18 45 3z m-302 -38
c8 -12 -21 -34 -34 -26 -8 5 -8 11 1 21 13 16 25 18 33 5z m632 -14 c2 -2 1
-13 -2 -24 -7 -26 -68 -37 -187 -31 l-77 3 0 -35 c0 -49 -14 -69 -29 -42 -12
22 -4 112 10 112 5 0 9 -6 9 -12 0 -7 7 -4 16 7 11 15 32 22 77 27 56 5 176 2
183 -5z m-346 -32 c0 -8 -7 -15 -15 -15 -16 0 -20 12 -8 23 11 12 23 8 23 -8z
m748 -34 c17 -10 -1 -25 -43 -36 l-30 -8 25 -7 25 -7 -28 -13 c-19 -9 -24 -16
-15 -21 8 -5 4 -19 -16 -48 -30 -43 -60 -58 -32 -16 9 13 16 44 16 67 0 79 10
94 65 97 11 0 26 -3 33 -8z m3260 -12 c1 -8 -36 -100 -83 -203 -47 -104 -94
-214 -104 -246 -11 -32 -44 -95 -75 -140 -31 -44 -56 -89 -56 -99 0 -41 -115
-242 -211 -371 -81 -109 -121 -176 -210 -352 -60 -120 -123 -233 -139 -252
-17 -18 -30 -42 -30 -53 0 -30 -118 -284 -143 -307 -25 -23 -53 -83 -44 -93 9
-8 46 39 47 58 0 9 7 22 16 30 19 16 64 104 105 205 16 43 38 89 48 103 10 14
33 53 50 86 18 33 38 71 46 85 8 14 46 90 84 170 52 109 95 181 174 290 106
145 198 298 219 361 16 53 47 111 74 144 l26 30 -7 -30 c-12 -57 -165 -378
-219 -462 -30 -46 -59 -99 -64 -116 -5 -18 -15 -50 -21 -72 -6 -22 -41 -81
-79 -131 -77 -103 -200 -327 -243 -441 -15 -41 -38 -86 -50 -99 -12 -13 -17
-24 -11 -24 21 0 13 -25 -38 -125 -33 -65 -50 -110 -50 -134 l0 -36 19 41 c10
23 24 45 30 48 6 4 20 39 32 79 78 259 207 521 360 728 27 37 49 75 49 85 1
35 58 155 102 212 24 33 62 106 89 172 26 63 92 214 146 335 55 121 120 270
143 330 42 107 60 142 60 117 0 -7 7 -12 15 -12 17 0 -7 -59 -149 -362 -51
-112 -121 -268 -154 -348 -82 -197 -345 -782 -377 -836 -14 -24 -39 -54 -55
-66 -23 -16 -27 -25 -19 -35 8 -9 2 -35 -26 -100 -20 -49 -44 -97 -54 -108
-10 -11 -21 -35 -25 -53 -10 -58 -58 -150 -83 -161 -13 -6 -23 -17 -23 -25 0
-23 -32 -86 -44 -86 -18 0 -68 34 -124 85 -36 33 -56 45 -61 37 -10 -16 -140
17 -211 53 -34 17 -80 29 -135 36 -47 5 -115 21 -152 35 -38 14 -76 28 -85 31
-10 3 -18 10 -18 15 0 6 7 7 15 4 59 -22 158 -47 170 -42 22 8 125 -14 168
-36 21 -11 86 -28 144 -39 109 -19 122 -17 123 18 0 6 12 26 27 43 19 23 23
34 14 39 -16 10 58 159 228 460 83 147 117 217 109 222 -15 10 54 124 168 279
46 63 97 143 114 177 16 34 45 83 64 107 19 25 44 71 56 103 12 32 35 79 51
104 16 25 29 51 29 58 0 7 17 43 39 79 21 37 75 136 120 220 66 124 79 156 71
172 -14 26 -13 32 7 28 10 -2 19 -10 21 -19z m-3670 -21 l-3 -33 -122 -3 -123
-3 0 26 c0 24 3 25 58 26 46 1 145 10 185 18 5 0 7 -14 5 -31z m3815 -5 c15
-9 6 -40 -33 -103 -24 -40 -40 -77 -40 -96 0 -47 -56 -161 -83 -168 -11 -3
-23 -3 -25 -1 -2 2 26 65 62 141 36 75 66 147 66 159 0 12 -11 32 -25 45 -13
12 -22 27 -19 32 6 9 79 2 97 -9z m-218 -65 c-15 -29 -67 -120 -115 -203 -138
-238 -176 -308 -188 -344 -7 -19 -27 -53 -46 -76 -19 -23 -53 -80 -75 -126
-39 -82 -73 -134 -158 -238 -24 -29 -43 -61 -43 -72 0 -10 -15 -36 -34 -56
-18 -21 -45 -61 -59 -89 -14 -28 -32 -54 -40 -57 -9 -3 -17 -28 -21 -64 -9
-79 -45 -153 -95 -193 -23 -19 -49 -52 -58 -74 -15 -36 -69 -142 -135 -269
-12 -22 -30 -40 -44 -43 -29 -7 -30 -15 -4 -32 25 -15 26 -42 3 -42 -52 0
-153 24 -188 44 -31 18 -61 25 -135 29 -74 4 -119 13 -200 42 -95 32 -133 43
-265 76 -22 6 -82 17 -133 24 -61 9 -103 21 -123 36 -16 11 -92 43 -167 69
l-137 48 -56 -25 c-35 -15 -62 -35 -73 -53 -30 -52 -38 -32 -9 22 23 44 35 55
68 64 74 23 172 15 195 -16 3 -3 31 -12 63 -19 31 -7 85 -24 120 -38 118 -49
312 -103 421 -118 60 -8 122 -22 139 -30 16 -8 37 -15 46 -15 9 0 43 -11 76
-25 33 -13 72 -25 86 -25 15 0 57 -11 93 -25 77 -29 136 -34 116 -10 -7 8 -29
15 -49 15 -34 1 -223 59 -238 73 -13 13 53 7 99 -10 44 -16 49 -16 66 0 10 9
41 20 68 24 58 8 90 36 131 121 15 31 50 89 78 127 27 39 77 115 110 170 33
55 100 158 149 229 48 71 97 148 109 170 12 23 37 64 58 91 20 28 54 82 76
120 22 39 70 122 106 185 36 63 86 139 111 168 25 30 46 59 46 66 0 7 17 37
38 68 22 30 64 104 96 164 53 103 132 212 144 200 3 -3 -7 -30 -23 -58z
m-4225 33 c0 -5 -7 -14 -15 -21 -13 -11 -13 -15 0 -33 20 -29 19 -37 -5 -37
-17 0 -20 7 -20 50 0 43 3 50 20 50 11 0 20 -4 20 -9z m4260 -138 c-55 -140
-111 -261 -116 -247 -3 5 9 40 26 77 16 37 30 75 30 86 0 10 6 24 14 30 8 6
24 40 37 74 28 77 39 100 46 94 3 -3 -14 -54 -37 -114z m-3630 72 l0 -35 -62
-1 c-35 0 -87 -4 -116 -8 -45 -6 -52 -5 -50 8 3 13 19 17 76 19 40 2 70 7 67
11 -3 5 -41 7 -85 4 -77 -6 -80 -5 -80 16 0 20 4 21 125 21 l125 0 0 -35z
m-312 8 c2 -9 -7 -13 -27 -13 -32 0 -50 15 -29 24 21 8 51 2 56 -11z m58 -24
c14 -28 14 -33 1 -47 -9 -8 -22 -12 -30 -9 -12 4 -13 13 -4 46 6 23 12 41 14
41 1 0 10 -14 19 -31z m-76 -39 c-12 -22 -18 -24 -39 -11 -19 12 -4 31 25 31
22 0 23 -3 14 -20z m5210 7 c0 -7 -8 -17 -18 -23 -15 -10 -18 -24 -17 -81 3
-99 -7 -108 -120 -116 -54 -4 -132 -18 -195 -37 -58 -17 -170 -40 -250 -51
-220 -31 -493 -101 -453 -116 7 -2 20 0 31 6 10 5 43 13 73 16 30 4 88 15 129
26 41 10 131 27 200 38 69 11 188 34 264 51 76 17 172 33 213 37 68 5 75 4 98
-17 14 -13 25 -29 25 -35 0 -20 -43 -53 -104 -80 -32 -14 -56 -28 -54 -31 3
-3 39 4 79 16 91 25 120 25 150 1 22 -18 22 -19 3 -28 -10 -6 -44 -13 -74 -17
-48 -6 -343 -62 -754 -142 -140 -27 -146 -26 -146 27 0 26 2 26 218 72 119 25
273 53 342 63 153 20 199 36 85 30 -99 -6 -330 -47 -490 -86 -67 -17 -139 -30
-161 -30 -22 0 -50 -7 -63 -16 -22 -16 -24 -15 -63 22 -22 22 -47 53 -55 69
-8 17 -23 39 -33 50 -9 11 -25 32 -34 46 l-17 27 73 22 c40 12 89 30 108 40
19 9 58 20 85 24 28 4 101 21 163 37 62 17 119 28 125 26 13 -4 -73 -32 -328
-104 -112 -32 -160 -49 -142 -51 16 -2 46 3 67 12 38 15 199 57 524 137 87 21
181 39 210 39 28 1 68 7 90 15 21 7 45 11 52 8 18 -7 18 11 1 26 -11 8 -48 5
-150 -14 -75 -14 -144 -28 -154 -32 -12 -4 -15 -3 -8 5 25 26 266 82 356 82
46 0 62 11 39 25 -23 14 -7 25 35 25 30 0 45 -4 45 -13z m-4882 -47 l3 -25
-116 -3 c-82 -2 -115 1 -115 9 0 26 -39 -40 -42 -71 -2 -18 -9 -35 -16 -38
-10 -3 -12 12 -10 65 3 68 3 68 33 69 17 1 41 6 55 12 14 6 66 10 115 9 88 -2
90 -3 93 -27z m-635 5 c1 -5 -6 -11 -15 -13 -11 -2 -18 3 -18 13 0 17 30 18
33 0z m-3 -35 c13 -9 12 -12 -5 -26 -17 -13 -18 -16 -5 -24 8 -5 22 -10 30
-10 11 -1 9 -6 -7 -19 -27 -22 -29 -39 -8 -68 13 -19 13 -23 -6 -47 -16 -20
-17 -27 -7 -31 19 -7 16 -115 -4 -143 l-15 -23 -7 23 c-9 35 -7 134 4 162 6
16 6 27 0 31 -11 7 -13 71 -4 139 7 49 10 52 34 36z m186 1 c27 -5 58 -13 68
-17 14 -5 17 -4 12 4 -4 7 -3 12 2 12 5 0 12 -9 15 -20 4 -14 0 -20 -13 -20
-10 0 -23 -7 -30 -15 -10 -12 -7 -16 16 -25 l28 -11 -29 -24 c-17 -13 -24 -24
-17 -25 22 0 13 -18 -13 -24 -14 -4 -25 -11 -25 -16 0 -16 47 -11 54 5 9 24
33 17 39 -11 4 -21 0 -27 -22 -35 -14 -5 -35 -13 -46 -18 -19 -9 -19 -10 3
-10 12 -1 22 -5 22 -10 0 -5 -10 -11 -22 -13 -34 -5 -28 -23 10 -26 24 -2 32
1 32 13 0 8 7 18 15 21 21 8 19 24 -2 24 -16 1 -16 2 1 11 20 12 36 -1 36 -31
0 -19 -48 -60 -71 -60 -19 0 -38 -22 -23 -27 5 -2 16 -8 24 -13 13 -8 12 -11
-5 -24 -22 -16 -14 -31 20 -39 16 -3 12 -7 -20 -22 -36 -16 -48 -17 -130 -5
-49 7 -95 14 -102 17 -19 8 -16 51 7 82 17 26 18 30 4 50 -15 20 -14 24 2 42
17 18 17 20 -2 34 -17 13 -18 15 -3 30 14 15 15 21 2 58 -13 36 -12 42 1 49
20 11 21 38 1 38 -19 0 -19 5 1 35 14 21 24 25 64 25 26 0 69 -4 96 -9z m444
-44 l0 -33 -62 1 c-35 0 -91 -4 -125 -8 -58 -8 -63 -7 -63 10 0 35 16 43 106
52 152 14 144 16 144 -22z m-5 -82 c0 -12 -9 -22 -25 -27 -48 -13 -194 -28
-202 -20 -4 4 -9 18 -10 32 -4 31 25 39 147 36 82 -1 90 -3 90 -21z m-249 -20
c8 -32 -1 -55 -21 -55 -9 0 -15 9 -15 24 0 54 25 75 36 31z m4094 -14 c0 -10
-91 -51 -114 -51 -9 0 -16 3 -16 8 1 20 20 33 61 41 61 12 69 12 69 2z m-170
-51 c-7 -25 -6 -39 3 -51 58 -80 159 -208 176 -223 20 -18 30 -76 13 -76 -4 0
-23 11 -42 24 -19 13 -46 26 -60 30 -14 4 -53 26 -87 49 -44 29 -61 47 -60 60
4 35 -23 30 -38 -7 -9 -20 -19 -36 -24 -36 -15 0 -33 28 -22 34 5 4 9 14 9 24
-2 28 58 150 81 164 12 7 21 20 21 30 0 18 20 30 32 19 4 -4 3 -22 -2 -41z
m-3685 -5 c0 -28 -3 -30 -40 -32 l-40 -1 35 7 c29 6 32 8 15 14 -11 4 -36 2
-55 -3 -19 -6 -56 -10 -82 -10 -47 0 -65 -14 -30 -23 13 -4 11 -5 -5 -6 -13 0
-23 5 -23 12 0 7 -7 3 -15 -7 -19 -25 -38 -9 -33 25 4 29 38 39 39 12 0 -16 1
-16 8 2 10 24 90 44 171 42 54 -2 55 -2 55 -32z m-317 -123 c2 -7 -7 -12 -22
-12 -27 0 -35 15 -13 23 17 7 30 3 35 -11z m309 -32 c16 -25 10 -29 -97 -57
-93 -25 -130 -28 -130 -13 0 6 6 10 14 10 8 0 35 9 61 20 26 11 66 21 91 22
24 2 44 6 44 11 0 4 -4 7 -10 7 -5 0 -10 5 -10 10 0 17 25 11 37 -10z m-52 0
c-3 -5 -19 -10 -35 -10 -15 0 -49 -9 -75 -20 -57 -24 -67 -25 -63 -3 2 12 20
21 58 29 71 15 123 17 115 4z m-265 -19 c0 -12 -20 -25 -27 -18 -7 7 6 27 18
27 5 0 9 -4 9 -9z m270 -61 c0 -15 -165 -79 -176 -68 -2 2 -1 13 2 24 4 16 21
25 67 36 75 19 107 21 107 8z m3600 -19 c0 -9 -6 -25 -14 -36 -7 -11 -16 -36
-20 -56 -4 -21 -13 -42 -21 -49 -8 -7 -15 -17 -15 -24 0 -9 -63 -149 -140
-311 -15 -33 -46 -103 -68 -155 -70 -165 -153 -331 -168 -337 -28 -11 -29 9
-1 58 15 27 27 53 27 58 0 6 53 122 119 258 65 136 124 266 131 288 7 22 27
69 45 105 18 36 47 102 64 147 24 60 36 80 47 76 7 -3 14 -13 14 -22z m-4168
-8 c11 -9 18 -11 18 -5 0 8 22 12 64 12 79 0 186 -11 186 -19 -1 -3 -15 -15
-33 -26 -22 -15 -40 -19 -57 -14 -45 13 -178 10 -183 -3 -8 -20 -27 12 -27 45
0 31 6 33 32 10z m4576 -33 c4 -23 -15 -43 -30 -34 -10 6 -11 48 -1 58 12 12
28 0 31 -24z m-4273 -10 c4 -6 -7 -10 -25 -10 -18 0 -29 4 -25 10 3 6 15 10
25 10 10 0 22 -4 25 -10z m209 -5 c-8 -21 -35 -34 -89 -44 -49 -9 -55 -3 -26
23 36 32 125 49 115 21z m3826 -14 c0 -13 -26 -21 -66 -21 -33 0 -46 14 -21
23 21 9 87 7 87 -2z m-4050 -18 c3 -2 -3 -9 -14 -15 -10 -5 -25 -19 -34 -29
-9 -10 -27 -19 -39 -19 -13 0 -23 -4 -23 -9 0 -5 9 -7 20 -4 11 3 21 0 22 -6
4 -30 2 -34 -15 -37 -30 -4 -33 -14 -4 -14 15 0 27 -3 27 -7 0 -5 3 -18 6 -30
6 -20 3 -23 -24 -23 -17 0 -34 -4 -37 -10 -4 -6 7 -10 24 -10 27 0 31 -4 31
-26 0 -53 -135 -75 -187 -30 -25 22 -26 27 -15 45 7 12 8 21 4 21 -15 0 -11
63 6 92 15 26 15 29 -7 52 -17 18 -22 32 -17 49 l6 24 132 -5 c73 -2 135 -6
138 -9z m-323 -40 c-3 -10 -5 -4 -5 12 0 17 2 24 5 18 2 -7 2 -21 0 -30z
m5249 21 c-3 -9 -6 -25 -6 -37 -1 -17 -2 -19 -9 -7 -5 8 -12 25 -15 38 -6 18
-4 22 14 22 16 0 20 -4 16 -16z m-4909 -19 c-7 -16 -37 -21 -37 -5 0 10 32 31
39 25 2 -2 1 -11 -2 -20z m163 9 c0 -13 -21 -44 -30 -44 -14 0 -12 24 2 38 13
13 28 16 28 6z m4780 -35 c0 -16 -4 -29 -10 -29 -5 0 -10 16 -10 36 0 21 4 33
10 29 6 -3 10 -19 10 -36z m-5237 5 c18 -24 16 -64 -3 -64 -14 0 -30 35 -30
64 0 32 10 32 33 0z m397 17 c0 -5 -6 -14 -14 -20 -16 -13 -32 2 -21 19 8 12
35 13 35 1z m4624 -44 c14 -48 30 -52 34 -9 4 40 18 42 27 2 8 -39 25 -39 25
-1 0 35 13 47 30 26 9 -11 9 -21 -3 -45 -12 -23 -12 -30 -3 -30 7 0 16 3 20 8
4 4 20 8 34 9 15 0 36 3 47 5 33 5 22 -64 -25 -157 l-40 -80 -72 -3 c-40 -1
-100 -11 -133 -21 -33 -11 -82 -19 -110 -19 -27 0 -69 -8 -93 -17 -29 -12 -57
-16 -85 -12 -32 4 -50 1 -75 -15 -27 -17 -42 -19 -90 -13 -46 5 -68 2 -110
-14 -29 -12 -75 -21 -102 -21 -27 0 -60 -4 -73 -9 -14 -6 -61 -15 -106 -21
-44 -6 -106 -20 -137 -30 -32 -11 -63 -20 -70 -20 -7 0 15 60 56 148 101 221
96 213 128 206 15 -3 34 -15 44 -25 22 -25 27 -24 39 9 9 24 11 25 20 9 16
-28 21 -116 11 -187 -5 -36 -8 -67 -7 -68 2 -2 11 10 19 27 11 20 16 59 17
118 0 99 17 89 19 -12 0 -45 3 -56 10 -43 17 28 6 145 -15 168 -15 16 -17 25
-9 38 19 29 43 26 62 -7 23 -42 34 -39 26 6 l-7 37 26 -17 c23 -15 27 -15 27
-2 0 21 15 19 32 -6 18 -28 78 -35 78 -10 0 9 -5 22 -11 28 -6 6 -8 16 -5 22
13 20 26 11 26 -17 0 -16 8 -32 20 -40 23 -14 27 -1 10 42 -6 16 -6 27 0 31 6
3 15 -14 22 -39 17 -63 32 -58 24 7 -6 48 -5 50 9 33 8 -11 15 -30 15 -42 0
-29 10 -54 21 -54 5 0 9 9 9 20 0 15 7 20 25 20 20 0 25 -6 31 -35 3 -20 12
-35 20 -35 18 0 17 -43 -1 -95 -8 -22 -15 -41 -15 -42 0 -1 6 0 14 3 38 15 51
181 17 218 -27 30 -36 66 -17 66 9 0 19 -15 26 -40 17 -62 34 -63 28 -1 -7 70
10 66 41 -11 13 -34 36 -38 28 -5 -20 89 -20 90 -7 85 8 -2 18 -18 24 -36 6
-17 17 -37 25 -44 11 -11 12 -4 6 41 -6 41 -4 52 6 49 15 -5 26 -24 34 -60 8
-43 25 -33 26 15 l1 42 16 -37 c23 -51 36 -48 28 8 -5 39 -3 45 11 42 9 -2 21
-20 27 -41z m-784 28 c0 -6 -39 -22 -78 -31 -38 -9 -21 5 25 21 42 16 53 18
53 10z m-3952 -33 c4 -23 -12 -29 -37 -13 -19 12 -6 43 16 39 10 -2 19 -13 21
-26z m122 -1 c0 -12 -29 -23 -41 -15 -5 3 -7 10 -4 15 8 12 45 12 45 0z m4258
-44 c3 -21 -1 -27 -16 -27 -27 0 -32 9 -20 36 14 31 32 26 36 -9z m-4390 -23
c-10 -10 -28 6 -28 24 0 15 1 15 17 -1 9 -9 14 -19 11 -23z m4172 5 c0 -11 -4
-17 -10 -14 -5 3 -10 15 -10 26 0 11 5 17 10 14 6 -3 10 -15 10 -26z m-4099 5
c11 -14 10 -15 -11 -12 -13 1 -25 9 -28 16 -5 17 23 15 39 -4z m-357 -10 c8
-22 -4 -40 -15 -23 -11 18 -11 39 0 39 5 0 12 -7 15 -16z m4200 -45 c-23 -24
-30 -27 -32 -14 -6 28 7 45 35 45 l27 0 -30 -31z m-4300 -8 c10 -16 -36 -21
-189 -21 -172 0 -192 17 -25 23 58 1 128 4 157 5 28 1 54 -2 57 -7z m126 -81
c0 -6 -11 -10 -25 -10 -14 0 -25 4 -25 9 0 5 -3 24 -6 42 l-6 34 31 -33 c17
-18 31 -37 31 -42z m230 55 c0 -8 -4 -15 -10 -15 -5 0 -7 7 -4 15 4 8 8 15 10
15 2 0 4 -7 4 -15z m40 -10 c0 -8 -4 -15 -9 -15 -13 0 -22 16 -14 24 11 11 23
6 23 -9z m-466 -14 c8 -12 -124 -25 -173 -16 -79 13 -52 25 58 25 60 0 112 -4
115 -9z m71 -1 c-3 -5 -17 -10 -31 -10 -14 0 -22 4 -19 10 3 6 17 10 31 10 14
0 22 -4 19 -10z m355 -18 c0 -15 -28 -47 -35 -40 -11 11 5 48 21 48 8 0 14 -4
14 -8z m-82 -54 c-5 -15 -78 -24 -78 -10 0 16 13 22 48 22 22 0 32 -4 30 -12z
m-213 -19 c5 -5 -12 -9 -48 -9 -54 0 -67 7 -49 24 9 10 84 -2 97 -15z m225
-25 c2 -3 -2 -9 -10 -14 -25 -15 -151 -21 -300 -13 -116 6 -145 11 -148 23 -2
13 27 15 225 12 126 -2 230 -6 233 -8z m5084 -14 c-14 -14 -152 -26 -139 -12
6 6 33 13 60 15 28 2 59 4 70 5 13 1 16 -1 9 -8z m-5454 -30 c18 -6 7 -8 -42
-9 -39 -1 -68 3 -68 9 0 12 74 12 110 0z m5225 0 c3 -5 0 -10 -7 -10 -7 0 -31
-3 -53 -6 -39 -5 -40 -5 -15 10 29 18 66 21 75 6z m-175 -29 c0 -10 -35 -21
-65 -21 -20 1 -20 1 -1 15 22 16 66 20 66 6z m-207 -28 c-7 -2 -19 -2 -25 0
-7 3 -2 5 12 5 14 0 19 -2 13 -5z m863 -55 c-3 -18 -10 -36 -15 -41 -8 -8
-187 -37 -226 -36 -43 1 63 32 130 38 73 6 94 24 37 29 -19 2 -160 -22 -315
-52 -521 -103 -851 -165 -856 -160 -16 16 118 68 204 78 33 4 93 16 134 27 41
10 98 19 126 19 29 0 78 9 111 21 40 14 99 24 184 29 84 5 165 18 245 38 140
36 157 39 209 41 38 1 38 1 32 -31z m-1992 -44 c-18 -36 -30 -51 -32 -40 -4
18 46 111 55 102 3 -3 -7 -31 -23 -62z m1366 11 c-26 -14 -163 -45 -200 -45
-38 0 -20 16 38 33 52 15 93 21 162 25 l25 1 -25 -14z m620 -88 c7 -26 22 -59
33 -73 24 -31 18 -38 -19 -24 -36 14 -69 8 -221 -40 -68 -22 -207 -55 -310
-75 -104 -20 -289 -61 -413 -91 -315 -77 -307 -74 -288 -85 11 -6 30 -4 55 5
21 8 61 17 88 21 28 4 109 22 180 41 72 18 157 38 190 43 96 15 269 49 334 66
32 8 65 15 72 14 29 -2 -114 -42 -306 -85 -257 -58 -513 -122 -537 -135 -30
-16 -89 11 -140 66 -45 49 -46 51 -31 79 8 15 13 37 10 47 -4 14 1 20 21 25
15 3 99 25 187 50 88 24 201 48 250 53 50 6 122 19 160 31 39 11 84 21 100 22
17 1 39 6 49 11 27 13 510 95 517 88 3 -3 12 -28 19 -54z m-1595 43 c3 -5 -3
-10 -14 -10 -12 0 -21 5 -21 10 0 6 6 10 14 10 8 0 18 -4 21 -10z m1281 -9
c-4 -5 -30 -12 -59 -16 -28 -4 -120 -24 -202 -46 -83 -21 -217 -48 -298 -58
-96 -13 -185 -32 -256 -55 -60 -20 -128 -39 -152 -42 l-44 -7 16 24 c9 13 34
29 55 36 64 20 798 155 904 166 19 2 36 5 38 5 2 1 1 -2 -2 -7z m-662 -9 c3
-5 -33 -18 -81 -30 -106 -26 -198 -69 -240 -110 -30 -30 -33 -31 -65 -18 -41
17 -314 30 -323 16 -8 -13 -19 -12 132 -19 87 -4 136 -10 145 -19 10 -10 -16
-11 -142 -6 -129 5 -153 4 -142 -7 8 -9 53 -15 135 -20 115 -6 173 -18 150
-32 -5 -3 -40 -2 -78 3 -39 5 -101 10 -140 11 -38 0 -80 4 -93 7 l-23 7 32 63
31 63 82 -6 c44 -4 121 -13 170 -21 49 -8 98 -12 109 -8 38 12 -10 34 -75 34
-75 0 -252 20 -269 31 -28 17 2 19 107 8 280 -29 259 -29 364 8 52 19 117 38
145 42 27 5 53 9 57 10 4 0 9 -3 12 -7z m-4685 -72 c20 0 23 -2 11 -10 -19
-13 -197 -13 -185 -1 15 14 55 20 104 15 24 -2 56 -4 70 -4z m288 -11 c63 -17
91 -20 148 -14 38 4 77 6 85 6 73 -6 681 -4 775 2 l120 9 73 -65 c40 -36 86
-69 102 -72 32 -7 67 -44 76 -82 10 -39 -3 -38 -58 4 -29 23 -64 44 -77 48
-13 4 -44 22 -68 41 -24 19 -69 41 -99 50 -63 18 -201 21 -289 6 -33 -6 -145
-14 -250 -17 -104 -4 -226 -13 -270 -21 -57 -11 -112 -13 -190 -9 -69 4 -128
3 -159 -4 -26 -7 -57 -9 -67 -6 -23 8 -25 38 -4 55 9 7 13 20 11 29 -4 13 33
49 61 60 2 1 38 -9 80 -20z m-197 -69 c0 -5 -20 -10 -45 -10 -25 0 -45 5 -45
10 0 6 20 10 45 10 25 0 45 -4 45 -10z m-132 -7 c-10 -2 -28 -2 -40 0 -13 2
-5 4 17 4 22 1 32 -1 23 -4z m1352 -12 c19 -6 52 -13 74 -16 21 -4 49 -17 63
-31 13 -13 57 -42 96 -64 40 -23 84 -54 98 -71 27 -31 37 -28 52 14 6 17 27
24 27 10 0 -5 3 -18 6 -30 5 -18 2 -23 -12 -23 -16 0 -15 -2 5 -13 36 -18 22
-32 -32 -31 -52 2 -77 16 -77 45 0 20 -43 53 -61 47 -7 -2 -32 18 -57 45 -37
38 -51 47 -69 42 -14 -3 -42 4 -74 20 -28 14 -69 27 -92 27 -66 2 -248 -13
-287 -24 -40 -10 -477 -33 -587 -29 -47 1 -74 -2 -79 -10 -6 -10 26 -11 142
-4 82 4 228 11 324 15 96 5 225 13 285 20 193 21 218 19 325 -30 92 -41 129
-64 119 -74 -3 -3 -44 13 -91 35 -109 50 -153 55 -324 35 -76 -8 -159 -15
-184 -15 -25 1 -92 -5 -150 -12 -58 -7 -121 -13 -140 -12 -39 0 -155 0 -245 0
-33 -1 -116 3 -183 8 -130 9 -144 15 -122 54 10 20 18 21 203 21 111 0 242 6
312 15 66 8 210 19 320 25 110 6 236 14 280 19 44 4 85 6 90 5 6 -2 26 -7 45
-13z m729 -16 c27 -13 66 -36 86 -49 20 -14 62 -30 93 -37 119 -24 177 -40
192 -53 8 -8 35 -17 59 -21 24 -4 58 -15 75 -25 17 -10 48 -22 69 -25 51 -10
61 -29 11 -23 -71 9 -308 77 -369 107 -33 16 -85 34 -116 40 -32 5 -80 24
-108 42 l-52 31 -66 -16 c-92 -24 -118 -40 -140 -86 -18 -40 -32 -51 -34 -27
-3 28 5 44 44 91 75 89 151 104 256 51z m3541 25 c0 -5 -7 -10 -16 -10 -8 0
-12 5 -9 10 3 6 10 10 16 10 5 0 9 -4 9 -10z m-1261 -67 c-12 -15 -12 -16 4
-10 13 5 17 1 17 -16 0 -36 -14 -51 -37 -38 -31 16 -35 48 -10 66 29 20 43 19
26 -2z m-809 -12 c0 -5 -9 -19 -20 -32 -21 -26 -27 -11 -10 22 11 19 30 26 30
10z m406 -48 c-11 -11 -19 6 -11 24 8 17 8 17 12 0 3 -10 2 -21 -1 -24z
m-2555 -9 c24 -10 63 -30 86 -46 40 -27 122 -41 108 -18 -11 18 11 11 30 -10
15 -16 16 -22 5 -35 -10 -13 -10 -19 4 -33 22 -25 20 -34 -6 -30 -15 2 -24 11
-26 25 -2 12 -15 26 -33 33 -32 14 -50 7 -31 -12 7 -7 12 -20 12 -29 0 -12 6
-16 18 -12 10 2 24 -3 31 -11 8 -9 23 -16 35 -16 11 0 40 -7 63 -15 51 -18
129 -6 174 26 50 35 30 54 -27 24 -25 -13 -29 -13 -37 1 -13 22 -1 44 23 44
12 0 19 -4 15 -9 -3 -6 8 -6 28 0 23 6 49 5 88 -6 30 -8 77 -20 104 -26 28 -6
72 -17 99 -25 26 -8 55 -14 63 -14 8 0 66 -18 128 -40 62 -22 120 -37 129 -34
8 3 41 -6 72 -20 31 -14 69 -26 84 -26 16 0 57 -13 92 -30 34 -16 74 -30 88
-30 14 -1 36 -7 50 -15 14 -8 38 -14 53 -15 15 0 42 -8 60 -17 43 -23 135 -42
175 -35 22 3 38 -1 51 -12 28 -25 249 -93 304 -94 44 0 50 3 67 31 10 18 25
39 32 47 25 28 65 97 77 132 12 37 46 76 57 65 5 -5 -18 -59 -46 -107 -5 -8
-11 -22 -14 -30 -7 -19 -55 -100 -79 -133 -20 -27 -14 -58 6 -38 17 17 27 13
27 -13 0 -18 -8 -27 -31 -35 -45 -16 -63 -14 -83 8 -9 10 -35 22 -58 25 -22 4
-81 22 -130 41 -49 19 -132 42 -185 50 -60 10 -118 27 -157 45 -35 17 -77 30
-99 30 -20 0 -65 12 -100 26 -34 14 -113 34 -176 45 -63 11 -128 28 -145 38
-17 11 -74 29 -126 41 -52 12 -113 32 -135 45 -22 12 -67 28 -100 35 -33 6
-69 18 -81 25 -13 8 -37 11 -67 8 -38 -5 -51 -12 -71 -38 -35 -46 -71 -49
-228 -16 l-133 27 -6 37 c-3 21 -11 43 -18 50 -14 14 -172 13 -336 -3 -60 -6
-218 -10 -350 -10 -132 0 -262 1 -290 0 -43 0 -213 -9 -515 -26 -86 -5 -118 6
-85 32 15 11 43 15 110 13 50 -1 180 3 290 9 110 6 322 16 470 21 149 5 320
15 380 21 77 8 124 8 155 1 59 -14 133 -14 125 -1 -4 6 -23 18 -43 27 -43 19
-94 18 -272 -2 -136 -16 -187 -18 -177 -9 3 4 40 10 82 14 74 7 95 14 82 26
-3 4 -20 1 -38 -5 -18 -6 -55 -11 -84 -11 -37 0 -60 -6 -78 -20 -24 -19 -41
-20 -449 -21 -319 0 -417 -3 -398 -11 l25 -11 -24 -5 c-12 -2 -34 -1 -48 3
-19 4 -23 10 -17 28 16 53 44 57 199 32 74 -12 110 -13 197 -4 61 7 128 8 155
3 27 -4 53 -7 58 -6 6 1 96 9 200 17 105 9 228 23 275 30 104 17 232 12 291
-11z m2489 1 c10 -12 9 -19 -2 -37 -8 -13 -27 -55 -42 -95 -19 -50 -39 -82
-64 -104 -20 -18 -38 -27 -39 -22 -2 6 9 44 26 84 75 188 91 211 121 174z
m-1643 -97 c60 -31 224 -72 252 -63 11 3 30 1 42 -6 20 -10 20 -12 6 -21 -11
-5 -24 -5 -36 2 -28 14 -36 13 -21 -5 23 -28 -35 -17 -87 15 -35 22 -59 30
-94 30 -29 0 -67 9 -101 25 -29 14 -62 25 -73 25 -11 0 -31 9 -44 19 -14 10
-31 17 -38 14 -7 -3 -33 3 -57 12 -42 16 -48 16 -86 1 -56 -22 -67 -20 -41 8
43 45 82 46 213 5 64 -20 138 -48 165 -61z m1809 92 c15 -6 24 -13 21 -16 -8
-9 -67 6 -67 17 0 12 12 11 46 -1z m184 -6 c30 -2 61 -3 68 -4 8 0 10 -9 6
-27 -9 -39 -13 -41 -33 -15 -14 19 -29 25 -82 29 -35 2 -71 7 -79 9 -26 9 12
25 40 17 14 -3 50 -8 80 -9z m-250 -19 c22 -12 23 -14 7 -20 -24 -10 -64 2
-71 20 -7 19 29 20 64 0z m370 -21 c0 -8 -4 -12 -10 -9 -5 3 -10 10 -10 16 0
5 5 9 10 9 6 0 10 -7 10 -16z m-2205 -75 c100 -36 101 -36 92 -45 -3 -3 -27 1
-53 10 -26 9 -66 16 -88 16 -23 0 -59 9 -80 21 -22 11 -63 23 -93 26 -56 6
-68 18 -32 32 26 9 125 -14 254 -60z m1900 41 c-3 -5 -15 -10 -26 -10 -10 0
-19 5 -19 10 0 6 12 10 26 10 14 0 23 -4 19 -10z m10 -104 l102 -103 -16 -27
c-14 -25 -20 -27 -56 -21 -22 3 -64 17 -94 30 -29 14 -64 25 -77 25 -27 0 -74
20 -74 31 0 13 40 102 62 136 11 18 27 33 35 33 8 0 61 -47 118 -104z m71 63
c38 -12 107 -25 154 -30 137 -13 233 -28 243 -38 5 -5 7 -17 3 -26 -7 -19 -30
-18 -181 8 -49 9 -130 20 -179 24 -80 7 -91 11 -109 35 -11 14 -16 31 -13 37
9 14 2 15 82 -10z m-246 4 c0 -5 -9 -19 -20 -33 -21 -27 -27 -12 -8 20 13 20
28 27 28 13z m-2392 -50 c5 -18 -20 -16 -44 2 -18 15 -18 15 10 13 16 -2 31
-9 34 -15z m893 -29 l44 -26 -37 5 c-48 7 -110 36 -102 49 8 13 43 3 95 -28z
m-1007 17 c4 -5 -7 -12 -24 -16 -36 -8 -110 3 -110 16 0 12 127 12 134 0z
m1288 -18 c24 -9 47 -20 52 -24 12 -11 -144 -8 -174 3 -23 9 -23 10 -7 19 12
7 26 6 49 -5 41 -21 45 -20 17 4 l-24 19 22 1 c13 0 42 -7 65 -17z m-1242 -23
c-36 -12 -70 -12 -70 0 0 6 21 10 48 9 38 -1 42 -2 22 -9z m1080 -9 c35 -10
10 -22 -29 -15 -17 4 -34 11 -37 15 -6 10 29 10 66 0z m1700 -16 c22 -12 23
-14 7 -20 -17 -7 -47 10 -47 26 0 12 11 11 40 -6z m-820 -5 c0 -15 -31 -60
-41 -60 -14 0 -11 19 9 45 18 26 32 32 32 15z m-630 -25 c47 -24 205 -65 248
-65 27 0 61 -9 90 -25 26 -14 54 -25 63 -25 8 0 44 -11 80 -25 35 -14 83 -27
106 -30 29 -2 56 -14 83 -36 22 -18 39 -34 37 -35 -8 -8 -196 49 -232 70 -23
13 -65 26 -98 29 -32 3 -71 14 -85 23 -15 10 -42 17 -61 15 -18 -1 -60 7 -92
19 -33 11 -70 20 -84 20 -14 0 -46 11 -72 25 -27 13 -70 27 -97 31 -53 6 -51
20 4 26 42 5 77 0 110 -17z m1622 10 c-4 -14 -71 -10 -85 4 -9 9 -1 11 38 9
28 -2 49 -7 47 -13z m-2732 -15 c8 -5 11 -12 8 -16 -10 -9 -58 4 -58 16 0 13
30 13 50 0z m2638 -16 c3 -22 -41 -69 -56 -60 -22 13 18 91 42 83 6 -2 12 -12
14 -23z m-2330 0 c-9 -9 -21 -13 -27 -9 -16 10 -3 25 22 25 20 0 20 -1 5 -16z
m-483 -4 c51 -5 17 -7 -125 -8 -107 0 -213 3 -235 7 -51 11 259 12 360 1z
m350 -20 c-3 -5 -13 -10 -21 -10 -8 0 -14 5 -14 10 0 6 9 10 21 10 11 0 17 -4
14 -10z m237 -6 c21 -4 35 -10 32 -15 -7 -11 -124 -12 -124 -1 0 23 25 27 92
16z m1827 -23 c20 -13 -2 -22 -48 -19 -40 3 -48 8 -34 21 9 10 65 8 82 -2z
m160 -5 c46 -16 25 -29 -34 -20 -44 6 -57 17 -32 27 18 8 29 7 66 -7z m-1739
-10 c0 -8 -8 -17 -17 -19 -14 -4 -12 -5 5 -6 12 0 22 -6 22 -12 0 -8 -15 -10
-46 -5 -26 3 -91 6 -146 6 -72 0 -97 3 -92 11 5 8 39 10 113 7 58 -3 95 -2 81
2 -29 9 -15 17 40 23 19 2 36 5 38 5 1 1 2 -4 2 -12z m1450 4 c0 -5 -7 -10
-16 -10 -8 0 -12 5 -9 10 3 6 10 10 16 10 5 0 9 -4 9 -10z m-1332 -29 c10 -6
8 -10 -10 -14 -50 -14 -83 -5 -61 16 9 10 55 8 71 -2z m1387 -11 c18 -20 17
-20 -13 -20 -30 0 -42 16 -25 33 10 11 19 8 38 -13z m240 -30 c11 -18 -37 -27
-178 -35 -124 -6 -137 -5 -131 9 7 17 16 19 107 16 35 -1 57 3 57 9 0 14 137
15 145 1z m105 -40 c-8 -5 -44 -10 -80 -10 -46 0 -61 3 -50 10 8 5 44 10 80
10 46 0 61 -3 50 -10z m-1990 -40 c18 -6 5 -8 -45 -9 -49 0 -65 2 -55 9 18 11
65 11 100 0z"/>
<path d="M1386 5572 c-9 -16 11 -52 29 -52 8 0 15 5 15 10 0 6 -5 10 -10 10
-6 0 -14 10 -19 22 -5 14 -10 17 -15 10z"/>
<path d="M1305 5560 c-3 -5 3 -10 14 -10 11 0 23 5 26 10 3 6 -3 10 -14 10
-11 0 -23 -4 -26 -10z"/>
<path d="M1480 5510 c0 -5 9 -10 21 -10 11 0 17 5 14 10 -3 6 -13 10 -21 10
-8 0 -14 -4 -14 -10z"/>
<path d="M1282 5499 c2 -7 10 -15 17 -17 8 -3 12 1 9 9 -2 7 -10 15 -17 17 -8
3 -12 -1 -9 -9z"/>
<path d="M1582 5498 c6 -18 28 -21 28 -4 0 9 -7 16 -16 16 -9 0 -14 -5 -12
-12z"/>
<path d="M1680 5492 c0 -5 7 -13 16 -16 10 -4 14 -1 12 6 -5 15 -28 23 -28 10z"/>
<path d="M1770 5459 c0 -5 9 -9 20 -9 11 0 20 2 20 4 0 2 -9 6 -20 9 -11 3
-20 1 -20 -4z"/>
<path d="M1870 5445 c0 -8 9 -15 20 -15 11 0 20 2 20 5 0 2 -9 9 -20 15 -16 9
-20 8 -20 -5z"/>
<path d="M2000 5430 c0 -5 7 -10 15 -10 8 0 15 5 15 10 0 6 -7 10 -15 10 -8 0
-15 -4 -15 -10z"/>
<path d="M1306 5394 c-9 -22 -8 -24 9 -24 8 0 15 9 15 20 0 24 -15 27 -24 4z"/>
<path d="M1025 5321 c-6 -10 21 -41 35 -41 19 0 21 22 4 35 -22 17 -31 18 -39
6z"/>
<path d="M1261 5286 c-8 -10 -9 -16 -1 -21 13 -8 30 3 30 21 0 18 -14 18 -29
0z"/>
<path d="M1244 5165 c-6 -15 2 -35 16 -35 4 0 7 11 6 25 -1 28 -13 33 -22 10z"/>
<path d="M1165 5008 c-4 -38 -2 -74 4 -91 6 -16 8 -40 5 -54 -5 -19 -3 -24 7
-21 10 3 13 17 11 44 -2 21 -3 72 -3 112 0 39 -4 72 -8 72 -5 0 -12 -28 -16
-62z"/>
<path d="M1286 5041 c-4 -7 -5 -15 -2 -18 9 -9 19 4 14 18 -4 11 -6 11 -12 0z"/>
<path d="M1273 4905 c-8 -22 6 -33 17 -15 13 20 12 30 0 30 -6 0 -13 -7 -17
-15z"/>
<path d="M1270 4735 c-15 -18 -6 -47 13 -39 9 3 12 14 9 30 -5 28 -6 29 -22 9z"/>
<path d="M1256 4594 c-8 -22 -8 -24 8 -24 12 0 26 20 26 36 0 12 -29 2 -34
-12z"/>
<path d="M1242 4468 c-19 -19 -14 -28 12 -28 19 0 24 5 23 20 -1 22 -17 26
-35 8z"/>
<path d="M1252 4268 c3 -7 14 -14 26 -16 16 -3 20 1 16 12 -7 19 -48 22 -42 4z"/>
<path d="M1247 4113 c-10 -10 -8 -33 3 -33 5 0 14 9 20 20 8 15 8 20 -3 20 -8
0 -17 -3 -20 -7z"/>
<path d="M1234 3956 c-18 -14 -18 -15 -1 -22 22 -8 46 11 31 26 -7 7 -17 5
-30 -4z"/>
<path d="M1222 3808 c-18 -18 -15 -41 4 -34 9 3 18 6 20 6 2 0 4 9 4 20 0 23
-10 26 -28 8z"/>
<path d="M1225 3630 c-3 -5 3 -10 14 -10 12 0 21 5 21 10 0 6 -6 10 -14 10 -8
0 -18 -4 -21 -10z"/>
<path d="M1255 3419 c-10 -15 1 -23 20 -15 9 3 13 10 10 16 -8 13 -22 13 -30
-1z"/>
<path d="M1224 3295 c-3 -8 -3 -19 1 -25 11 -18 25 -11 25 15 0 27 -17 34 -26
10z"/>
<path d="M1246 3124 c-10 -25 -7 -34 9 -34 9 0 15 9 15 25 0 28 -15 34 -24 9z"/>
<path d="M1540 5194 c-25 -9 -52 -23 -60 -31 -13 -14 -13 -15 5 -9 53 19 146
36 200 36 42 0 56 3 45 10 -23 15 -140 11 -190 -6z"/>
<path d="M1717 5063 c-13 -12 -92 -21 -104 -11 -8 6 -20 4 -38 -8 -24 -16 -26
-16 -40 2 -11 15 -16 16 -26 7 -9 -9 -8 -17 5 -37 19 -30 29 -32 46 -11 12 14
26 16 116 15 44 0 52 3 57 20 5 20 -5 35 -16 23z"/>
<path d="M1614 4909 c-4 -6 -19 -9 -36 -5 -24 5 -29 3 -26 -12 3 -16 13 -18
80 -10 24 3 31 38 8 38 -11 0 -22 -5 -26 -11z"/>
<path d="M1547 4750 c-21 -4 -43 -13 -50 -19 -9 -10 11 -11 98 -5 105 6 124 9
114 18 -10 8 -127 13 -162 6z"/>
<path d="M1585 4689 c-22 -5 -50 -11 -62 -14 -13 -3 -23 -10 -23 -15 0 -12 41
-13 72 -1 13 4 40 11 61 15 30 6 37 4 37 -9 0 -14 3 -14 30 0 17 9 30 20 30
25 0 12 -90 11 -145 -1z"/>
<path d="M1555 4543 c-38 -8 -75 -26 -75 -35 0 -6 7 -7 16 -4 41 16 146 26
184 17 46 -10 61 1 24 18 -24 11 -108 13 -149 4z"/>
<path d="M1528 4478 c-16 -5 -28 -14 -28 -20 0 -6 7 -7 18 -2 9 4 52 8 95 9
43 1 83 7 90 14 14 14 -135 14 -175 -1z"/>
<path d="M1566 4279 c-27 -4 -54 -13 -60 -20 -8 -9 -3 -10 24 -5 19 3 68 9
108 12 40 4 75 11 78 15 6 11 -83 10 -150 -2z"/>
<path d="M1574 4220 c-28 -4 -60 -13 -70 -19 -15 -10 -9 -11 36 -6 30 3 83 8
117 11 34 4 60 11 57 15 -6 10 -67 10 -140 -1z"/>
<path d="M640 4642 c0 -4 21 -6 48 -4 82 5 89 9 20 11 -38 0 -68 -2 -68 -7z"/>
<path d="M654 4568 c33 -6 52 -6 60 2 7 7 -8 10 -50 9 l-59 -1 49 -10z"/>
<path d="M655 4221 c-15 -6 -9 -10 28 -15 56 -9 72 -1 33 14 -31 11 -34 11
-61 1z"/>
<path d="M908 3945 c-5 -24 -4 -25 56 -24 33 1 75 5 91 8 25 6 18 9 -40 16
-38 4 -77 11 -86 16 -13 7 -18 3 -21 -16z"/>
<path d="M3373 3563 c-31 -3 -46 -11 -58 -29 -26 -40 -12 -50 22 -14 29 31 32
32 67 20 30 -10 38 -9 51 4 12 12 22 13 41 6 33 -13 34 -13 34 5 0 15 -48 18
-157 8z"/>
<path d="M3550 3545 c0 -8 7 -15 15 -15 8 0 15 7 15 15 0 8 -7 15 -15 15 -8 0
-15 -7 -15 -15z"/>
<path d="M3602 3548 c6 -18 28 -21 28 -4 0 9 -7 16 -16 16 -9 0 -14 -5 -12
-12z"/>
<path d="M3640 3540 c0 -5 7 -10 16 -10 8 0 12 5 9 10 -3 6 -10 10 -16 10 -5
0 -9 -4 -9 -10z"/>
<path d="M3695 3530 c-3 -5 3 -10 13 -10 11 0 22 -7 26 -15 7 -20 26 -19 26 0
0 9 -12 20 -26 25 -31 12 -31 12 -39 0z"/>
<path d="M3260 3514 c0 -17 22 -14 28 4 2 7 -3 12 -12 12 -9 0 -16 -7 -16 -16z"/>
<path d="M3347 3493 c-23 -6 -18 -37 6 -41 10 -2 16 2 15 9 -2 9 9 12 37 11
38 -2 39 -2 21 13 -19 15 -43 17 -79 8z"/>
<path d="M3485 3482 c16 -15 98 -25 93 -11 -2 7 -26 14 -54 16 -31 3 -45 1
-39 -5z"/>
<path d="M3790 3480 c0 -5 7 -10 15 -10 8 0 15 5 15 10 0 6 -7 10 -15 10 -8 0
-15 -4 -15 -10z"/>
<path d="M3840 3471 c0 -12 29 -35 36 -28 11 10 -5 37 -21 37 -8 0 -15 -4 -15
-9z"/>
<path d="M3620 3456 c0 -10 9 -16 21 -16 24 0 21 23 -4 28 -10 2 -17 -3 -17
-12z"/>
<path d="M3902 3449 c2 -7 10 -15 17 -17 8 -3 12 1 9 9 -2 7 -10 15 -17 17 -8
3 -12 -1 -9 -9z"/>
<path d="M3680 3445 c0 -9 78 -44 84 -38 11 12 6 20 -19 31 -26 12 -65 16 -65
7z"/>
<path d="M3960 3438 c0 -17 96 -57 145 -60 36 -3 40 -6 43 -31 2 -17 -7 -45
-23 -72 -19 -33 -21 -43 -10 -39 24 10 55 79 55 124 l0 40 -51 0 c-40 0 -58 5
-81 25 -31 26 -78 34 -78 13z"/>
<path d="M3195 3415 c-29 -27 -29 -40 -1 -29 17 7 41 42 33 50 -2 2 -16 -7
-32 -21z"/>
<path d="M3246 3406 c3 -9 14 -16 23 -16 9 0 25 -3 36 -6 11 -3 28 1 38 8 16
12 16 13 -5 14 -13 1 -40 5 -61 9 -32 7 -37 5 -31 -9z"/>
<path d="M3395 3410 c-4 -6 8 -10 30 -10 22 0 34 4 30 10 -3 6 -17 10 -30 10
-13 0 -27 -4 -30 -10z"/>
<path d="M3847 3413 c-14 -13 -6 -23 33 -43 49 -25 73 -26 68 -2 -2 11 -14 18
-33 20 -17 2 -34 10 -38 18 -9 15 -20 18 -30 7z"/>
<path d="M3498 3403 c-32 -8 -19 -20 28 -27 26 -3 55 -6 65 -6 31 0 21 18 -13
25 -18 4 -40 8 -48 9 -8 2 -23 1 -32 -1z"/>
<path d="M3640 3374 c0 -10 69 -34 95 -34 8 0 15 7 15 15 0 9 -9 15 -24 15
-13 0 -38 3 -55 6 -17 4 -31 3 -31 -2z"/>
<path d="M3777 3343 c-14 -13 -6 -23 19 -23 22 0 25 2 14 15 -14 16 -23 19
-33 8z"/>
<path d="M3975 3340 c-4 -6 10 -10 34 -10 22 0 52 -5 67 -10 18 -7 31 -7 37
-1 14 14 -34 31 -88 31 -24 0 -47 -4 -50 -10z"/>
<path d="M3197 3323 c-12 -11 -8 -23 8 -23 8 0 15 7 15 15 0 16 -12 20 -23 8z"/>
<path d="M3250 3315 c14 -16 46 -20 54 -6 6 8 -25 21 -53 21 -11 0 -11 -3 -1
-15z"/>
<path d="M3350 3315 c14 -16 40 -20 40 -6 0 9 -24 21 -42 21 -6 0 -6 -6 2 -15z"/>
<path d="M3417 3313 c-11 -10 13 -33 34 -33 17 0 18 3 7 20 -13 20 -29 26 -41
13z"/>
<path d="M3506 3305 c3 -8 15 -15 25 -15 25 0 113 -23 119 -31 7 -10 49 -15
49 -7 1 26 -13 37 -38 32 -17 -4 -33 0 -42 8 -8 8 -38 18 -66 22 -45 6 -52 4
-47 -9z"/>
<path d="M3865 3310 c3 -5 13 -10 21 -10 8 0 14 5 14 10 0 6 -9 10 -21 10 -11
0 -17 -4 -14 -10z"/>
<path d="M3910 3280 c0 -5 9 -10 21 -10 11 0 17 5 14 10 -3 6 -13 10 -21 10
-8 0 -14 -4 -14 -10z"/>
<path d="M3111 3262 c-1 -23 -42 -95 -61 -107 -5 -3 -10 -16 -10 -29 0 -12
-11 -33 -25 -46 -15 -14 -23 -30 -20 -39 4 -9 -3 -23 -17 -33 l-23 -19 29 7
c21 5 27 4 22 -5 -4 -6 -2 -11 3 -11 13 0 14 25 2 48 -12 23 35 76 69 78 14 1
34 3 45 3 26 3 74 -8 102 -21 12 -6 36 -8 53 -5 21 5 39 1 55 -9 27 -17 47
-11 38 11 -3 10 -20 15 -54 15 -27 0 -49 5 -49 10 0 6 -21 10 -47 10 -34 0
-44 3 -33 10 28 17 1 22 -42 8 -36 -13 -46 -13 -56 -2 -17 18 -16 23 14 66 22
32 25 42 16 61 l-11 22 0 -23z"/>
<path d="M3746 3264 c-4 -10 3 -18 24 -26 17 -5 30 -13 30 -16 0 -4 12 -8 28
-8 62 -3 133 -18 143 -30 13 -16 39 -19 39 -5 0 5 -6 13 -13 19 -18 16 -99 42
-109 36 -14 -9 -100 19 -105 34 -7 17 -30 15 -37 -4z"/>
<path d="M3160 3250 c0 -21 30 -36 40 -20 5 8 23 9 54 5 30 -5 46 -4 46 3 0
11 -16 14 -102 26 -32 4 -38 2 -38 -14z"/>
<path d="M3991 3261 c-10 -6 -1 -11 28 -16 45 -7 57 -3 46 14 -8 13 -55 14
-74 2z"/>
<path d="M3337 3244 c-16 -16 -5 -24 35 -24 26 0 38 4 33 9 -14 14 -59 23 -68
15z"/>
<path d="M3450 3220 c0 -5 15 -10 34 -10 19 0 38 5 41 10 4 6 -10 10 -34 10
-23 0 -41 -4 -41 -10z"/>
<path d="M3573 3223 c-7 -2 -13 -9 -13 -15 0 -7 21 -9 55 -6 50 4 55 3 49 -14
-5 -16 1 -18 40 -18 36 0 44 -3 40 -15 -4 -8 -2 -15 2 -16 5 0 38 -2 74 -3 37
-2 80 -10 98 -20 18 -9 45 -16 60 -14 l27 4 -30 13 c-16 7 -32 16 -35 21 -3 5
-38 12 -78 16 -51 5 -72 11 -72 20 0 10 -14 14 -45 14 -30 0 -45 4 -45 13 0 7
-8 13 -17 13 -10 0 -36 3 -58 6 -22 3 -46 4 -52 1z"/>
<path d="M3125 3180 c-4 -6 8 -10 29 -10 20 0 36 5 36 10 0 6 -13 10 -29 10
-17 0 -33 -4 -36 -10z"/>
<path d="M3265 3170 c-4 -6 13 -10 44 -10 27 0 53 5 56 10 4 6 -13 10 -44 10
-27 0 -53 -4 -56 -10z"/>
<path d="M3389 3155 l-24 -13 28 -7 c16 -4 37 -3 49 2 20 9 20 9 -4 20 -18 8
-30 8 -49 -2z"/>
<path d="M4027 3163 c-4 -3 -7 -12 -7 -19 0 -17 27 -7 34 12 5 14 -15 20 -27
7z"/>
<path d="M3498 3144 c-14 -13 3 -24 36 -24 19 0 39 -7 46 -15 17 -21 25 -19
38 10 13 28 10 30 -20 14 -15 -8 -22 -8 -27 0 -9 13 -64 25 -73 15z"/>
<path d="M3690 3066 c0 -20 24 -26 93 -24 51 1 61 -2 87 -27 23 -22 33 -26 42
-17 16 16 5 25 -68 54 -44 18 -68 22 -84 16 -14 -5 -27 -5 -34 2 -15 15 -36
12 -36 -4z"/>
<path d="M3930 3061 c0 -12 5 -21 10 -21 6 0 10 6 10 14 0 8 -4 18 -10 21 -5
3 -10 -3 -10 -14z"/>
<path d="M3482 3059 c5 -14 43 -25 133 -36 28 -3 55 -11 60 -18 13 -15 113
-48 125 -40 5 3 11 1 15 -5 3 -5 19 -10 34 -10 15 0 32 -5 38 -11 13 -13 43
-5 43 12 0 6 -6 9 -14 6 -8 -3 -19 0 -25 7 -6 7 -44 16 -84 20 -48 4 -81 13
-99 26 -18 13 -43 20 -73 20 -33 0 -45 4 -45 15 0 11 -11 15 -39 15 -22 0 -47
3 -57 7 -12 4 -15 2 -12 -8z"/>
<path d="M3970 3054 c0 -9 5 -14 12 -12 18 6 21 28 4 28 -9 0 -16 -7 -16 -16z"/>
<path d="M3040 3043 c1 -14 35 -50 59 -63 23 -12 23 -12 7 11 -9 13 -16 31
-16 41 0 13 -8 18 -25 18 -14 0 -25 -3 -25 -7z"/>
<path d="M3273 3043 c-25 -5 -32 -23 -9 -23 7 0 27 5 45 11 34 12 55 4 31 -11
-12 -8 -12 -10 2 -15 25 -10 41 -2 45 23 3 20 -1 22 -45 21 -26 -1 -57 -4 -69
-6z"/>
<path d="M3115 3030 c8 -13 45 -13 65 0 11 7 3 10 -28 10 -26 0 -41 -4 -37
-10z"/>
<path d="M2910 2986 c-9 -12 -8 -15 9 -13 12 1 21 7 21 14 0 17 -15 16 -30 -1z"/>
<path d="M3180 2986 c0 -15 18 -31 26 -23 7 7 -7 37 -17 37 -5 0 -9 -6 -9 -14z"/>
<path d="M3455 2990 c-3 -5 3 -10 15 -10 12 0 18 5 15 10 -3 6 -10 10 -15 10
-5 0 -12 -4 -15 -10z"/>
<path d="M3230 2962 c0 -9 80 -35 87 -28 5 5 -62 36 -78 36 -5 0 -9 -3 -9 -8z"/>
<path d="M2927 2930 c-9 -11 -23 -20 -30 -20 -8 0 -24 -23 -38 -52 -13 -29
-39 -76 -56 -106 -18 -30 -33 -58 -33 -63 0 -4 21 -17 46 -28 42 -19 53 -20
147 -9 l102 11 40 64 c22 36 52 80 67 97 28 33 52 85 44 93 -2 3 -14 0 -25 -7
-26 -14 -137 5 -163 28 -16 13 -18 12 -29 -12 -7 -14 -20 -26 -31 -26 -19 0
-24 15 -8 25 11 7 4 25 -8 25 -4 0 -15 -9 -25 -20z m138 -30 l30 -7 -30 -7
c-16 -4 -38 -11 -47 -17 -30 -16 -38 -11 -26 16 12 26 21 28 73 15z m125 -17
c0 -5 -4 -15 -10 -23 -11 -18 -25 -7 -17 15 6 15 27 21 27 8z m-70 -12 c0 -14
-29 -41 -43 -41 -7 0 -19 5 -27 10 -13 9 -12 12 4 25 22 17 66 20 66 6z m-150
-24 c0 -7 -5 -18 -12 -25 -7 -7 -18 -12 -25 -12 -16 0 -17 22 -1 38 16 16 38
15 38 -1z m42 -47 c-30 -28 -82 -41 -82 -21 0 19 53 51 84 51 l31 -1 -33 -29z
m108 -4 c0 -23 -41 -76 -58 -76 -6 0 -13 12 -17 27 -5 21 -2 30 11 38 9 5 24
18 32 27 19 21 32 14 32 -16z m-196 -32 c26 -10 18 -24 -14 -24 -29 0 -38 9
-23 23 8 9 17 9 37 1z m-64 -40 c0 -14 -45 -37 -62 -32 -4 2 2 17 14 35 17 23
26 29 35 21 7 -6 13 -17 13 -24z m170 22 c0 -16 -37 -32 -48 -21 -7 7 25 35
40 35 4 0 8 -6 8 -14z m-32 -42 c42 -12 16 -29 -62 -43 -56 -9 -81 -10 -88 -3
-8 8 -4 14 16 22 15 5 24 14 21 20 -7 11 75 14 113 4z"/>
<path d="M3388 2943 c-32 -5 -37 -19 -9 -28 22 -7 71 10 71 25 0 10 -11 11
-62 3z"/>
<path d="M3470 2922 c0 -5 11 -12 25 -14 14 -3 25 -1 25 3 0 5 -4 9 -9 9 -5 0
-16 3 -25 6 -9 3 -16 2 -16 -4z"/>
<path d="M2809 2862 c-15 -26 -50 -78 -77 -115 -50 -65 -57 -90 -14 -44 20 21
40 52 114 175 11 17 16 32 11 32 -4 0 -20 -22 -34 -48z"/>
<path d="M3227 2828 c8 -47 23 -58 84 -67 30 -4 64 -13 76 -19 34 -19 49 -15
29 7 -11 12 -38 22 -69 26 -62 9 -87 20 -87 40 0 18 8 18 88 1 43 -9 61 -9 59
-2 -4 11 -60 26 -144 39 l-43 7 7 -32z"/>
<path d="M3485 2800 c-4 -6 -5 -13 -3 -16 9 -8 161 -44 167 -38 10 10 -22 23
-74 29 -27 4 -57 14 -67 22 -11 10 -18 11 -23 3z"/>
<path d="M3182 2748 c12 -18 26 -23 59 -24 24 -1 33 0 19 3 -13 3 -35 14 -49
24 -32 26 -47 24 -29 -3z"/>
<path d="M3740 2738 c0 -8 5 -19 12 -26 20 -20 40 -14 36 11 -3 25 -48 39 -48
15z"/>
<path d="M3527 2734 c-11 -12 3 -24 29 -24 15 0 24 -6 24 -15 0 -8 5 -15 10
-15 16 0 11 26 -8 43 -19 17 -44 22 -55 11z"/>
<path d="M3687 2724 c-9 -10 2 -24 19 -24 8 0 14 7 14 15 0 15 -21 21 -33 9z"/>
<path d="M3351 2709 c18 -11 152 -12 145 0 -3 5 -40 9 -82 9 -48 0 -71 -4 -63
-9z"/>
<path d="M3125 2690 c-7 -11 35 -30 66 -30 11 0 22 -7 25 -15 5 -11 23 -15 71
-15 61 0 64 -1 58 -21 -7 -20 -4 -21 57 -17 46 2 62 0 61 -9 -3 -15 92 -19
101 -4 6 9 -99 31 -151 31 -17 0 -36 7 -43 15 -8 10 -30 15 -65 15 -39 0 -65
7 -106 30 -60 33 -65 34 -74 20z"/>
<path d="M3502 2665 c20 -21 133 -34 149 -18 7 7 -14 12 -58 16 -37 3 -77 9
-88 13 -19 6 -19 6 -3 -11z"/>
<path d="M3708 2644 c-21 -11 -28 -22 -28 -44 0 -48 18 -44 45 10 27 54 25 57
-17 34z"/>
<path d="M3053 2609 c10 -6 51 -15 90 -21 40 -5 77 -14 84 -20 7 -5 27 -8 45
-7 52 5 164 -11 185 -26 20 -16 63 -20 63 -6 0 13 -133 42 -215 46 -38 2 -110
13 -160 24 -103 23 -117 25 -92 10z"/>
<path d="M2706 2593 c-9 -22 23 -27 60 -9 30 14 38 14 62 2 15 -7 61 -17 102
-21 41 -4 88 -13 104 -21 16 -8 44 -14 63 -14 18 0 42 -5 52 -12 14 -8 29 -8
61 0 37 9 45 8 55 -5 9 -12 21 -14 43 -10 41 8 92 -2 86 -17 -3 -8 14 -11 55
-11 33 0 57 3 55 7 -3 5 -22 8 -43 8 -20 0 -41 4 -47 9 -11 12 -111 32 -184
36 -94 7 -203 23 -260 39 -30 9 -69 16 -87 16 -17 0 -34 4 -37 9 -10 15 -134
10 -140 -6z"/>
<path d="M3600 2575 c0 -8 5 -15 10 -15 6 0 10 7 10 15 0 8 -4 15 -10 15 -5 0
-10 -7 -10 -15z"/>
<path d="M2639 2521 c-16 -16 -29 -34 -29 -40 0 -16 37 -13 73 6 18 9 50 15
74 14 24 -1 66 5 95 14 63 18 61 18 54 0 -4 -12 6 -15 60 -15 48 0 66 -4 70
-15 5 -11 23 -15 73 -15 46 0 73 -5 87 -15 18 -15 17 -16 -13 -10 -19 4 -33 2
-33 -3 0 -12 84 -25 110 -17 11 4 20 10 20 15 0 17 -38 30 -112 36 -40 3 -86
13 -102 20 -16 8 -48 14 -70 14 -23 0 -51 7 -64 15 -19 14 -28 14 -78 1 -40
-10 -63 -12 -76 -5 -13 7 -31 4 -64 -11 -26 -11 -56 -20 -68 -20 -19 1 -17 4
14 30 19 17 28 30 21 30 -7 0 -26 -13 -42 -29z"/>
<path d="M3631 2537 c-12 -15 -5 -27 16 -27 7 0 13 9 13 20 0 23 -13 26 -29 7z"/>
<path d="M2785 2468 c-22 -5 -55 -8 -72 -6 -18 2 -33 1 -33 -3 0 -14 36 -19
70 -9 52 15 70 13 63 -6 -5 -14 5 -16 93 -13 79 3 98 1 96 -9 -1 -8 7 -16 18
-19 17 -5 18 -8 8 -21 -11 -13 -9 -14 12 -7 14 4 29 11 34 15 12 12 -2 30 -23
30 -10 0 -24 7 -31 15 -9 11 -33 15 -91 15 -44 0 -79 4 -79 9 0 15 -23 18 -65
9z"/>
<path d="M2580 2441 c0 -10 -3 -26 -6 -35 -5 -12 0 -16 17 -16 13 0 42 -7 64
-15 22 -8 67 -14 100 -15 47 0 68 -5 97 -25 20 -14 47 -25 60 -25 20 1 17 4
-14 20 -44 24 -62 46 -27 34 34 -11 73 -11 79 1 3 6 -16 11 -47 13 -29 2 -56
9 -63 17 -9 11 -35 15 -91 15 -61 0 -80 3 -87 16 -7 13 -13 14 -30 5 -27 -14
-32 -14 -32 3 0 8 -4 18 -10 21 -5 3 -10 -3 -10 -14z m215 -50 c21 -5 26 -9
17 -15 -17 -10 -142 2 -142 15 0 10 78 10 125 0z"/>
<path d="M3562 2439 c-24 -10 -42 -24 -40 -31 7 -21 26 -20 33 1 7 23 25 29
24 9 0 -7 -20 -53 -44 -103 -24 -49 -42 -92 -39 -94 11 -11 36 30 69 115 21
54 46 100 58 109 20 14 21 15 2 14 -11 0 -40 -9 -63 -20z"/>
<path d="M3350 2433 c0 -10 105 -53 128 -53 6 0 12 6 14 12 3 8 -13 18 -41 25
-83 23 -101 26 -101 16z"/>
<path d="M3220 2383 c0 -13 8 -18 33 -19 17 0 51 -5 75 -11 23 -6 42 -7 42 -2
0 5 -11 9 -25 9 -13 0 -39 9 -57 20 -41 25 -68 26 -68 3z"/>
<path d="M3095 2370 c3 -5 15 -10 26 -10 10 0 19 5 19 10 0 6 -12 10 -26 10
-14 0 -23 -4 -19 -10z"/>
<path d="M3480 2345 c0 -8 6 -15 14 -15 8 0 16 7 20 15 4 10 -1 15 -14 15 -11
0 -20 -7 -20 -15z"/>
<path d="M3065 2340 c3 -5 36 -10 72 -10 83 0 79 5 -10 14 -46 5 -67 3 -62 -4z"/>
<path d="M3210 2315 c0 -11 11 -15 43 -14 l42 1 -30 13 c-39 18 -55 18 -55 0z"/>
<path d="M3414 2315 c22 -17 46 -20 46 -6 0 5 -10 11 -22 15 -37 9 -44 6 -24
-9z"/>
<path d="M3010 2310 c0 -5 5 -10 10 -10 6 0 10 5 10 10 0 6 -4 10 -10 10 -5 0
-10 -4 -10 -10z"/>
<path d="M3328 2298 c9 -9 15 -9 24 0 9 9 7 12 -12 12 -19 0 -21 -3 -12 -12z"/>
<path d="M2700 2286 c0 -8 5 -18 10 -21 6 -3 10 3 10 14 0 12 -4 21 -10 21 -5
0 -10 -6 -10 -14z"/>
<path d="M3077 2267 c3 -5 44 -7 92 -6 49 1 98 -3 115 -10 34 -14 43 -9 20 10
-19 15 -236 21 -227 6z"/>
<path d="M3424 2257 c-4 -11 -15 -14 -42 -11 -35 5 -36 5 -18 -10 24 -20 70
-21 85 -2 9 10 8 16 -4 26 -12 10 -16 9 -21 -3z"/>
<path d="M3229 2206 c8 -9 29 -16 49 -16 45 0 31 15 -22 25 -36 6 -38 5 -27
-9z"/>
<path d="M3363 2163 c9 -9 19 -14 23 -11 10 10 -6 28 -24 28 -15 0 -15 -1 1
-17z"/>
<path d="M4253 2238 c-22 -35 -53 -88 -68 -118 -14 -30 -35 -64 -45 -75 -10
-11 -50 -85 -90 -165 -40 -80 -85 -163 -99 -185 -15 -22 -33 -60 -40 -85 -7
-25 -26 -71 -41 -102 -17 -37 -23 -58 -15 -58 22 0 46 37 50 76 2 20 24 78 49
129 25 50 46 96 46 102 0 6 7 16 16 24 9 7 37 56 64 108 26 53 88 167 138 254
91 159 109 208 35 95z"/>
<path d="M4149 1873 c-50 -107 -189 -429 -189 -439 0 -3 4 -2 10 1 12 8 42 74
91 203 21 56 66 156 99 222 33 66 56 120 50 120 -6 0 -33 -48 -61 -107z"/>
<path d="M5755 3124 c-27 -7 -169 -39 -314 -70 -252 -53 -503 -124 -516 -144
-9 -15 7 -12 81 16 117 44 281 81 504 114 118 18 227 38 242 46 15 8 40 14 55
14 15 0 35 5 43 10 13 9 13 11 0 20 -19 13 -34 12 -95 -6z"/>
<path d="M5696 2447 c-5 -15 -6 -31 -2 -34 11 -11 18 5 14 34 l-4 28 -8 -28z"/>
<path d="M475 1744 c47 -7 163 -9 152 -2 -7 4 -48 7 -92 6 -44 0 -71 -2 -60
-4z"/>
<path d="M2258 1563 c7 -3 16 -2 19 1 4 3 -2 6 -13 5 -11 0 -14 -3 -6 -6z"/>
<path d="M5975 5630 c-4 -7 45 -9 142 -8 124 1 137 2 78 8 -107 11 -213 11
-220 0z"/>
<path d="M5886 5511 c-2 -3 10 -6 27 -7 18 0 96 -4 173 -8 127 -8 205 -4 192
10 -8 7 -388 13 -392 5z"/>
<path d="M5825 5385 c98 -17 465 -20 465 -4 0 6 -25 10 -67 8 -38 -1 -160 1
-273 4 -197 6 -202 6 -125 -8z"/>
<path d="M6175 5290 c-33 -4 -141 -9 -240 -10 -99 -1 -189 -5 -200 -10 -12 -6
62 -8 195 -5 231 5 319 12 335 26 10 10 1 10 -90 -1z"/>
<path d="M2762 5116 c-14 -71 -15 -89 -3 -81 12 7 24 83 19 116 -2 16 -7 4
-16 -35z"/>
<path d="M5490 5150 c0 -5 5 -10 11 -10 5 0 7 5 4 10 -3 6 -8 10 -11 10 -2 0
-4 -4 -4 -10z"/>
<path d="M6100 5150 c-52 -3 -185 -5 -295 -3 -156 2 -191 0 -160 -8 54 -15
592 -6 608 10 12 12 11 12 -153 1z"/>
<path d="M5630 5011 c-86 -5 -98 -7 -65 -13 52 -10 603 -8 675 2 40 5 9 8
-115 9 -93 0 -219 3 -280 5 -60 2 -157 1 -215 -3z"/>
<path d="M5340 4901 c72 -14 911 -25 940 -13 18 8 -38 11 -215 11 -132 1 -359
3 -505 6 -161 2 -247 1 -220 -4z"/>
<path d="M2360 4881 c0 -5 7 -14 15 -21 8 -7 15 -19 15 -27 0 -11 5 -10 25 4
28 21 32 38 9 47 -23 9 -64 7 -64 -3z"/>
<path d="M2480 4882 c0 -12 43 -16 305 -32 99 -6 221 -15 270 -19 50 -5 92 -7
94 -5 10 9 -57 25 -82 20 -16 -3 -70 1 -120 9 -51 8 -146 16 -212 19 -66 2
-150 8 -187 12 -46 5 -68 3 -68 -4z"/>
<path d="M5310 4780 l-135 -5 105 -8 c131 -9 1056 -14 1003 -5 -158 26 -574
35 -973 18z"/>
<path d="M6341 4761 c-9 -6 -10 -11 -2 -15 13 -8 31 1 31 15 0 11 -11 11 -29
0z"/>
<path d="M2400 4730 c0 -8 7 -36 14 -62 8 -26 15 -64 14 -86 0 -21 7 -53 16
-71 12 -22 20 -73 25 -155 5 -68 12 -129 16 -136 4 -7 7 -37 6 -66 -1 -29 3
-55 9 -59 5 -3 10 -17 10 -31 0 -13 5 -24 11 -24 7 0 9 11 5 33 -15 70 -46
313 -50 392 -1 22 -7 49 -13 60 -6 12 -17 59 -23 105 -6 47 -18 92 -26 100
-12 13 -14 13 -14 0z"/>
<path d="M3130 4700 c0 -19 5 -30 14 -30 8 0 16 -16 20 -42 4 -22 20 -84 35
-137 16 -53 32 -120 36 -150 4 -30 14 -70 23 -90 8 -20 19 -63 23 -96 10 -75
44 -223 52 -232 19 -18 18 16 -3 89 -12 46 -28 117 -35 158 -7 41 -18 89 -25
105 -12 29 -40 146 -80 327 -18 83 -36 128 -52 128 -5 0 -8 -13 -8 -30z"/>
<path d="M2580 4681 c0 -14 -11 -12 115 -22 61 -4 129 -11 151 -14 27 -5 52
-2 70 7 16 7 48 12 71 10 37 -3 43 -7 52 -35 6 -18 10 -41 10 -52 0 -40 21
-116 40 -142 16 -22 22 -50 26 -123 5 -90 46 -324 59 -337 17 -18 17 15 -2 84
-21 76 -26 115 -40 278 -4 46 -14 90 -23 105 -22 32 -35 78 -49 167 l-12 72
-141 -2 c-78 -1 -184 2 -234 6 -65 6 -93 5 -93 -2z"/>
<path d="M5499 4666 c-3 -3 -95 -6 -205 -7 -109 -1 -185 -5 -169 -9 38 -8
1158 -10 1149 -1 -6 7 -24 7 -454 17 -173 3 -318 4 -321 0z"/>
<path d="M5025 4650 c3 -5 15 -10 26 -10 11 0 17 5 14 10 -3 6 -15 10 -26 10
-11 0 -17 -4 -14 -10z"/>
<path d="M2598 4638 c7 -7 12 -22 12 -35 0 -12 9 -45 20 -72 12 -30 17 -62 14
-83 -3 -18 2 -52 10 -77 9 -24 16 -65 16 -92 0 -26 5 -51 10 -54 7 -4 8 -28 4
-65 -7 -60 0 -110 14 -110 5 0 6 38 4 85 -3 53 -1 85 6 85 5 0 15 13 22 29 9
23 9 38 -4 75 -13 38 -14 52 -3 83 8 26 18 38 30 37 9 -1 17 2 17 7 0 15 -47
10 -60 -6 -9 -11 -11 -35 -7 -80 5 -48 3 -65 -6 -65 -15 0 -37 89 -37 150 0
24 -7 64 -17 88 -15 40 -15 44 0 60 16 15 18 15 33 -6 23 -33 36 -27 16 8 -13
23 -22 29 -38 25 -14 -3 -24 1 -28 10 -3 8 -13 15 -23 15 -13 0 -14 -3 -5 -12z"/>
<path d="M6368 4643 c6 -2 18 -2 25 0 6 3 1 5 -13 5 -14 0 -19 -2 -12 -5z"/>
<path d="M2833 4607 c40 -6 65 -6 80 1 17 8 5 11 -58 10 l-80 -1 58 -10z"/>
<path d="M2972 4598 c-7 -7 -12 -15 -12 -19 0 -11 38 2 51 17 9 11 8 14 -8 14
-10 0 -24 -5 -31 -12z"/>
<path d="M5130 4541 c-52 -3 182 -9 520 -13 601 -6 710 -4 710 13 0 10 -1070
9 -1230 0z"/>
<path d="M2700 4530 c-11 -7 1 -10 40 -10 39 0 51 3 40 10 -8 5 -26 10 -40 10
-14 0 -32 -5 -40 -10z"/>
<path d="M2229 4492 c-43 -28 -89 -72 -75 -72 3 0 29 16 57 35 45 31 71 39
117 38 6 -1 12 5 12 13 0 24 -63 16 -111 -14z"/>
<path d="M5855 4435 c-82 -7 -310 -14 -505 -15 -313 -3 -340 -4 -230 -12 170
-13 742 -2 915 16 107 12 153 13 196 5 30 -6 66 -9 80 -7 15 2 0 8 -42 16 -80
15 -214 14 -414 -3z"/>
<path d="M4808 4423 c6 -2 18 -2 25 0 6 3 1 5 -13 5 -14 0 -19 -2 -12 -5z"/>
<path d="M3044 4402 c-32 -22 -15 -60 20 -46 23 9 27 -11 11 -55 -7 -22 -10
-43 -5 -46 11 -7 16 2 25 43 13 61 -19 125 -51 104z"/>
<path d="M2265 4376 c-27 -13 -66 -41 -85 -62 l-35 -38 30 19 c17 10 48 31 69
47 29 20 51 28 83 28 32 0 43 4 43 15 0 23 -47 19 -105 -9z"/>
<path d="M5975 4370 c-400 -26 -548 -30 -766 -24 -153 4 -238 3 -242 -3 -17
-27 447 -23 938 8 99 7 243 10 320 7 77 -3 124 -2 105 2 -60 13 -230 18 -355
10z"/>
<path d="M4828 4343 c12 -2 32 -2 45 0 12 2 2 4 -23 4 -25 0 -35 -2 -22 -4z"/>
<path d="M2280 4319 c-41 -24 -100 -79 -100 -92 0 -5 17 6 37 23 51 45 120 75
138 60 9 -7 15 -8 20 0 21 34 -43 40 -95 9z"/>
<path d="M5513 4240 c-407 -3 -646 -9 -652 -15 -7 -7 51 -8 172 -4 100 4 417
7 705 8 346 1 521 4 517 11 -3 6 -27 9 -53 8 -26 -1 -336 -5 -689 -8z"/>
<path d="M4638 4223 c18 -2 45 -2 60 0 15 2 0 4 -33 4 -33 0 -45 -2 -27 -4z"/>
<path d="M2911 4109 c-24 -17 -49 -28 -57 -25 -8 3 -14 -1 -14 -9 0 -30 66 -8
104 34 31 34 13 34 -33 0z"/>
<path d="M5020 4133 c-189 -2 -348 -7 -352 -11 -10 -10 1425 -3 1470 7 36 9
-328 10 -1118 4z"/>
<path d="M6225 4130 c3 -5 13 -10 21 -10 8 0 14 5 14 10 0 6 -9 10 -21 10 -11
0 -17 -4 -14 -10z"/>
<path d="M4480 4120 c-19 -13 46 -13 75 0 16 7 11 9 -20 9 -22 0 -47 -4 -55
-9z"/>
<path d="M4635 4021 c-100 -9 1043 -25 1329 -18 178 4 248 2 275 -7 58 -20 91
-27 91 -18 0 4 -26 16 -57 26 -54 17 -116 18 -813 21 -415 1 -786 0 -825 -4z"/>
<path d="M5810 3940 c-96 -4 -452 -10 -790 -14 -338 -4 -640 -9 -670 -13 -49
-5 -52 -6 -30 -15 17 -7 70 -7 160 1 99 8 1422 27 1703 24 21 0 25 3 17 11
-14 14 -156 16 -390 6z"/>
<path d="M6278 3891 c-114 -8 -124 -21 -16 -21 64 0 89 4 98 15 7 8 11 14 9
13 -2 -1 -43 -4 -91 -7z"/>
<path d="M6049 3846 c-2 -3 -310 -6 -684 -7 -374 -2 -736 -6 -805 -10 -69 -4
259 -6 728 -6 684 2 849 4 835 15 -16 11 -65 17 -74 8z"/>
<path d="M2028 3783 c-2 -34 -4 -38 -36 -87 -41 -64 -50 -103 -25 -121 23 -17
13 -27 -40 -40 -27 -7 -43 -17 -45 -29 -4 -17 -2 -17 22 -1 14 10 32 15 41 12
8 -4 23 5 35 20 19 24 19 27 4 44 -9 10 -14 26 -12 36 4 24 38 30 38 7 0 -14
3 -15 12 -6 9 9 9 18 0 37 -7 15 -10 31 -7 36 4 5 37 9 75 9 72 0 99 15 65 34
-10 6 -31 23 -47 39 -33 31 -77 37 -80 10z m70 -26 c3 -14 -1 -18 -20 -15 -12
2 -24 11 -26 21 -3 14 1 18 20 15 12 -2 24 -11 26 -21z m15 -44 c-7 -2 -21 -2
-30 0 -10 3 -4 5 12 5 17 0 24 -2 18 -5z"/>
<path d="M6150 3790 c-16 -5 14 -8 83 -9 70 -1 106 3 102 9 -7 12 -148 12
-185 0z"/>
<path d="M4460 3772 c0 -11 57 -17 290 -33 181 -12 1369 -18 1376 -7 8 12 -33
18 -112 17 -402 -10 -1416 8 -1521 27 -19 4 -33 2 -33 -4z"/>
<path d="M6005 3692 c11 -12 311 -19 322 -8 3 3 -38 6 -93 6 -54 0 -130 3
-169 6 -49 5 -67 3 -60 -4z"/>
<path d="M4696 3671 c41 -18 250 -32 639 -41 371 -9 477 -17 578 -40 23 -5 74
-9 112 -8 l70 1 -55 8 c-30 4 -84 15 -120 23 -37 9 -110 16 -168 16 -57 0
-179 4 -270 10 -92 5 -288 15 -437 20 -148 6 -292 13 -320 16 -36 3 -44 2 -29
-5z"/>
<path d="M2105 3618 c-6 -12 -30 -34 -54 -48 -25 -14 -46 -31 -49 -38 -5 -16
25 -16 31 1 3 8 8 9 15 2 17 -16 -15 -72 -65 -113 -24 -20 -41 -42 -39 -49 3
-7 -4 -22 -16 -33 -12 -11 -18 -23 -14 -27 4 -4 12 0 17 9 8 15 13 16 30 5 17
-10 22 -9 35 8 14 19 16 19 28 3 14 -19 56 -25 56 -8 0 6 -7 10 -15 10 -8 0
-15 5 -15 10 0 14 47 12 103 -5 45 -13 48 -13 60 5 12 20 37 27 37 12 0 -5 -9
-17 -20 -27 -17 -15 -42 -20 -135 -23 -70 -3 -112 -8 -109 -14 8 -13 254 1
272 15 7 6 11 16 8 24 -3 7 10 35 29 62 46 64 76 134 73 168 -2 23 1 29 20 31
21 3 22 1 12 -18 -21 -39 -3 -46 20 -7 13 22 30 37 41 37 23 0 25 -13 4 -30
-16 -13 -21 -40 -7 -40 5 0 18 14 30 30 26 34 57 41 47 11 -10 -33 13 -33 30
-1 20 39 39 40 32 0 -4 -16 -4 -30 -1 -30 3 0 17 14 31 30 13 17 31 30 39 30
20 0 18 -10 -8 -37 -12 -13 -19 -25 -16 -28 9 -10 108 20 108 32 0 16 5 16 47
1 25 -9 32 -16 27 -30 -5 -16 -2 -18 23 -12 30 7 53 22 53 34 0 11 -94 52
-121 52 -48 2 -226 1 -324 -1 -112 -2 -112 -2 -167 -95 -28 -48 -44 -57 -55
-31 -6 18 23 55 44 55 16 0 17 24 2 52 -9 17 -17 19 -55 13 -32 -4 -50 -2 -66
9 -30 21 -41 20 -53 -6z m59 -13 c16 -12 17 -15 4 -15 -8 0 -21 7 -28 15 -16
19 -1 19 24 0z m26 -55 c0 -6 8 -5 20 2 21 13 36 6 25 -11 -9 -16 -77 -43 -92
-37 -7 3 -13 17 -13 31 0 21 5 25 30 25 17 0 30 -5 30 -10z m-72 -49 c3 -19 0
-22 -13 -17 -9 3 -19 6 -21 6 -2 0 -4 9 -4 21 0 29 34 21 38 -10z m132 -40 c0
-12 -20 -25 -27 -18 -7 7 6 27 18 27 5 0 9 -4 9 -9z m-151 -10 c12 -8 8 -15
-18 -40 -18 -17 -37 -31 -42 -31 -12 0 -11 27 1 35 6 3 10 15 10 26 0 20 24
25 49 10z m110 -50 c-6 -17 -15 -31 -20 -31 -13 0 -11 64 3 78 19 19 30 -10
17 -47z m53 27 c-7 -7 -12 -8 -12 -2 0 14 12 26 19 19 2 -3 -1 -11 -7 -17z
m-117 -18 c-3 -5 -15 -10 -26 -10 -11 0 -17 5 -14 10 3 6 15 10 26 10 11 0 17
-4 14 -10z"/>
<path d="M6228 3593 c7 -3 16 -2 19 1 4 3 -2 6 -13 5 -11 0 -14 -3 -6 -6z"/>
<path d="M4900 3572 c0 -5 26 -12 58 -16 75 -9 665 -26 857 -24 l150 1 -135 7
c-74 5 -306 13 -515 19 -209 7 -388 14 -397 17 -10 3 -18 1 -18 -4z"/>
<path d="M2766 3554 c-9 -22 3 -32 14 -14 12 19 12 30 1 30 -5 0 -12 -7 -15
-16z"/>
<path d="M3040 3520 c0 -11 5 -20 10 -20 6 0 10 9 10 20 0 11 -4 20 -10 20 -5
0 -10 -9 -10 -20z"/>
<path d="M6075 3521 c6 -11 -3 -12 -43 -6 -32 4 -52 3 -57 -4 -4 -8 26 -11 99
-11 62 0 106 4 106 10 0 5 -17 9 -37 8 -21 -1 -47 2 -57 7 -15 6 -17 5 -11 -4z"/>
<path d="M6230 3520 c-22 -7 -21 -8 13 -9 23 -1 36 3 32 9 -7 11 -10 11 -45 0z"/>
<path d="M2519 3490 c-12 -8 -12 -12 3 -26 22 -22 37 -14 23 13 -8 15 -15 19
-26 13z"/>
<path d="M1887 3472 c-9 -10 -23 -38 -32 -62 -27 -77 -75 -109 -75 -50 0 25
-4 30 -23 30 -50 0 -60 -38 -22 -76 l26 -26 -26 -20 c-30 -24 -89 -107 -81
-115 9 -9 33 15 45 45 7 16 24 36 39 45 63 40 110 92 126 143 16 50 50 94 62
81 4 -3 1 -20 -5 -38 -9 -28 -9 -30 5 -18 19 16 15 73 -7 77 -8 1 -23 -6 -32
-16z m-119 -130 c2 -14 -2 -22 -11 -22 -17 0 -30 27 -21 41 9 16 29 4 32 -19z"/>
<path d="M2410 3464 c0 -31 23 -28 28 4 2 15 -2 22 -12 22 -11 0 -16 -9 -16
-26z"/>
<path d="M2460 3475 c0 -8 7 -15 15 -15 9 0 12 6 9 15 -4 8 -10 15 -15 15 -5
0 -9 -7 -9 -15z"/>
<path d="M2645 3481 c-3 -5 4 -12 15 -16 23 -7 60 2 60 16 0 12 -67 12 -75 0z"/>
<path d="M2764 3476 c-7 -20 2 -46 16 -46 5 0 10 9 10 20 0 11 0 23 1 27 1 15
-21 14 -27 -1z"/>
<path d="M2570 3470 c0 -14 26 -23 41 -15 8 6 7 10 -2 16 -19 12 -39 11 -39
-1z"/>
<path d="M3000 3440 c0 -11 5 -20 10 -20 6 0 10 9 10 20 0 11 -4 20 -10 20 -5
0 -10 -9 -10 -20z"/>
<path d="M2784 3398 c-36 -39 -62 -92 -42 -86 7 2 17 18 22 35 6 18 20 37 32
44 13 6 25 18 28 25 9 24 -9 15 -40 -18z"/>
<path d="M2348 3414 c-11 -10 3 -34 19 -34 8 0 13 7 11 17 -3 18 -20 27 -30
17z"/>
<path d="M2535 3410 c-4 -6 -3 -16 3 -22 6 -6 12 -6 17 2 4 6 3 16 -3 22 -6 6
-12 6 -17 -2z"/>
<path d="M2422 3399 c2 -7 10 -15 17 -17 8 -3 12 1 9 9 -2 7 -10 15 -17 17 -8
3 -12 -1 -9 -9z"/>
<path d="M2465 3399 c-4 -6 -5 -13 -2 -16 7 -7 27 6 27 18 0 12 -17 12 -25 -2z"/>
<path d="M2587 3404 c-8 -8 1 -24 14 -24 5 0 9 7 9 15 0 15 -12 20 -23 9z"/>
<path d="M2640 3390 c9 -16 15 -18 31 -10 25 14 16 30 -17 30 -22 0 -23 -2
-14 -20z"/>
<path d="M5060 3380 c-25 -8 -25 -8 5 -10 17 -1 95 -6 175 -12 80 -6 183 -10
230 -9 104 2 127 -3 135 -29 5 -16 10 -18 25 -10 10 6 39 10 64 10 24 0 57 5
73 12 l28 12 -27 4 c-14 2 -50 -1 -80 -7 -46 -9 -56 -8 -80 10 -22 16 -37 18
-80 13 -29 -3 -128 1 -219 10 -181 17 -211 18 -249 6z"/>
<path d="M2700 3349 c0 -24 23 -21 28 4 2 10 -3 17 -12 17 -10 0 -16 -9 -16
-21z"/>
<path d="M2940 3341 c0 -17 5 -33 10 -36 6 -4 10 8 10 29 0 20 -4 36 -10 36
-5 0 -10 -13 -10 -29z"/>
<path d="M2467 3344 c-4 -4 -37 -8 -74 -8 -44 -1 -68 -5 -71 -13 -5 -16 45
-17 120 -2 45 9 65 8 109 -4 41 -12 55 -13 61 -4 8 13 -14 21 -89 32 -27 3
-52 3 -56 -1z"/>
<path d="M2508 3300 c-4 -8 -9 -30 -12 -47 -5 -30 -3 -33 19 -33 26 0 32 9 16
26 -5 5 -11 23 -13 39 -3 19 -6 25 -10 15z"/>
<path d="M5083 3303 c-29 -11 -9 -18 43 -14 38 2 52 6 43 12 -15 9 -66 11 -86
2z"/>
<path d="M2650 3286 c0 -21 21 -31 31 -15 14 22 11 29 -11 29 -11 0 -20 -6
-20 -14z"/>
<path d="M5410 3276 c-52 -13 -124 -29 -160 -35 -36 -7 -69 -17 -75 -23 -12
-12 32 -5 170 27 55 12 126 26 157 30 32 3 60 11 63 16 10 15 -54 9 -155 -15z"/>
<path d="M2890 3245 c0 -22 4 -34 10 -30 6 3 10 17 10 30 0 13 -4 27 -10 30
-6 4 -10 -8 -10 -30z"/>
<path d="M5015 3270 c3 -5 10 -10 16 -10 5 0 9 5 9 10 0 6 -7 10 -16 10 -8 0
-12 -4 -9 -10z"/>
<path d="M1860 3255 c0 -8 6 -12 14 -9 7 3 16 -2 19 -10 7 -18 52 -22 62 -6 4
7 12 7 25 0 24 -13 80 -13 80 0 0 14 -44 23 -83 17 -17 -2 -47 2 -66 9 -42 18
-51 18 -51 -1z"/>
<path d="M2230 3260 c-8 -5 -42 -10 -74 -10 -33 0 -56 -3 -52 -7 4 -5 57 -8
117 -8 83 0 110 3 114 14 4 10 -2 12 -24 8 -17 -4 -33 -2 -36 3 -8 13 -26 12
-45 0z"/>
<path d="M6138 3263 c6 -2 18 -2 25 0 6 3 1 5 -13 5 -14 0 -19 -2 -12 -5z"/>
<path d="M6233 3263 c9 -2 23 -2 30 0 6 3 -1 5 -18 5 -16 0 -22 -2 -12 -5z"/>
<path d="M2399 3239 c24 -20 61 -26 61 -10 0 14 -20 24 -54 27 l-31 2 24 -19z"/>
<path d="M2560 3230 c0 -5 7 -10 15 -10 8 0 15 5 15 10 0 6 -7 10 -15 10 -8 0
-15 -4 -15 -10z"/>
<path d="M2610 3224 c0 -3 5 -15 11 -26 13 -23 -3 -40 -29 -31 -11 5 -13 0 -7
-27 6 -28 4 -36 -16 -51 -31 -23 -18 -35 15 -14 15 10 26 27 26 39 0 12 5 27
12 34 6 6 17 27 24 47 11 34 11 35 -12 35 -13 0 -24 -3 -24 -6z"/>
<path d="M2824 3185 c-7 -17 4 -37 17 -30 12 8 12 45 -1 45 -6 0 -13 -7 -16
-15z"/>
<path d="M1835 3169 c-13 -19 5 -23 132 -27 103 -4 125 -2 121 9 -3 10 -26 14
-86 14 -44 0 -84 3 -88 8 -11 11 -72 8 -79 -4z"/>
<path d="M2120 3166 c0 -8 4 -17 9 -20 15 -10 40 5 34 20 -7 18 -43 18 -43 0z"/>
<path d="M2195 3170 c-7 -11 2 -30 14 -30 5 0 11 9 14 20 5 21 -16 29 -28 10z"/>
<path d="M2290 3166 c0 -14 29 -31 38 -21 6 6 -18 35 -29 35 -5 0 -9 -6 -9
-14z"/>
<path d="M2352 3158 c7 -19 38 -22 38 -4 0 10 -9 16 -21 16 -12 0 -19 -5 -17
-12z"/>
<path d="M2455 3150 c18 -20 45 -27 45 -12 0 15 -24 32 -44 32 -18 0 -19 -1
-1 -20z"/>
<path d="M1756 3094 c-4 -9 -4 -20 0 -23 3 -3 46 -8 95 -9 77 -4 89 -2 89 12
0 24 -30 33 -42 13 -11 -20 -48 -23 -48 -3 0 27 -84 36 -94 10z"/>
<path d="M2262 3103 c-60 -3 -82 -7 -79 -16 4 -12 21 -12 126 -3 39 4 57 1 68
-9 8 -8 25 -15 38 -15 13 0 25 -6 28 -12 3 -10 7 -10 20 1 27 22 20 31 -23 31
-29 0 -40 4 -40 15 0 10 -9 14 -27 13 -16 -1 -65 -4 -111 -5z"/>
<path d="M1987 3086 c-4 -9 2 -17 13 -21 28 -9 44 3 29 21 -15 18 -35 18 -42
0z"/>
<path d="M2080 3090 c0 -13 46 -24 60 -15 9 6 9 10 -1 16 -19 12 -59 11 -59
-1z"/>
<path d="M2760 3076 c0 -9 7 -16 16 -16 9 0 14 5 12 12 -6 18 -28 21 -28 4z"/>
<path d="M6085 3050 c3 -5 34 -9 68 -9 59 1 60 2 22 10 -56 11 -97 11 -90 -1z"/>
<path d="M2256 3015 c-25 -26 -11 -35 51 -31 61 3 81 20 36 29 -15 4 -37 9
-49 13 -13 3 -27 -1 -38 -11z"/>
<path d="M1977 3009 c-9 -6 -47 -10 -84 -9 -206 2 -215 2 -211 -12 4 -12 49
-15 153 -8 17 1 56 2 88 2 31 0 67 0 80 0 23 1 55 1 155 -1 34 -1 62 2 62 7 0
13 -59 34 -72 26 -18 -11 -119 -14 -138 -4 -9 5 -23 4 -33 -1z"/>
<path d="M2405 3010 c3 -5 8 -10 11 -10 2 0 4 5 4 10 0 6 -5 10 -11 10 -5 0
-7 -4 -4 -10z"/>
<path d="M2477 3013 c-4 -3 -7 -15 -7 -25 0 -16 3 -16 20 -6 11 7 20 18 20 25
0 14 -22 18 -33 6z"/>
<path d="M2720 2995 c0 -8 5 -15 10 -15 6 0 10 7 10 15 0 8 -4 15 -10 15 -5 0
-10 -7 -10 -15z"/>
<path d="M6140 2950 c8 -5 26 -9 40 -9 l25 1 -25 8 c-14 4 -32 8 -40 9 -13 1
-13 0 0 -9z"/>
<path d="M1642 2933 c-29 -12 4 -23 66 -22 l67 1 -50 14 c-53 14 -63 15 -83 7z"/>
<path d="M1848 2933 c-58 -9 -25 -20 50 -18 42 2 96 3 120 4 24 1 41 5 37 10
-5 10 -151 12 -207 4z"/>
<path d="M2095 2930 c7 -12 55 -14 55 -2 0 4 -14 9 -31 10 -19 2 -28 -2 -24
-8z"/>
<path d="M2186 2930 c5 -5 41 -11 79 -11 39 -1 76 -6 83 -12 9 -7 12 -4 12 12
0 20 -5 21 -92 21 -61 0 -89 -3 -82 -10z"/>
<path d="M2424 2915 c-4 -14 -3 -29 0 -33 9 -8 26 18 26 41 0 26 -19 20 -26
-8z"/>
<path d="M2680 2915 c0 -8 5 -15 10 -15 6 0 10 7 10 15 0 8 -4 15 -10 15 -5 0
-10 -7 -10 -15z"/>
<path d="M2008 2892 c-25 -5 -22 -21 6 -33 17 -8 29 -8 42 0 18 10 18 10 -3
11 -12 0 -23 6 -25 13 -2 7 -11 11 -20 9z"/>
<path d="M2120 2871 c0 -11 13 -12 65 -6 47 5 65 3 65 -5 0 -6 6 -10 13 -7 6
2 12 10 12 18 0 11 -17 14 -77 14 -59 0 -78 -3 -78 -14z"/>
<path d="M1875 2870 c-14 -23 28 -38 55 -20 12 8 11 10 -5 10 -12 0 -26 5 -32
11 -8 8 -13 7 -18 -1z"/>
<path d="M1567 2863 c-4 -3 -7 -12 -7 -19 0 -10 17 -13 65 -11 35 2 67 6 71
10 4 4 -2 7 -14 7 -12 0 -22 3 -22 8 0 9 -84 14 -93 5z"/>
<path d="M1747 2864 c-21 -21 43 -33 73 -14 12 7 11 9 -5 8 -11 -1 -29 2 -41
5 -11 4 -23 4 -27 1z"/>
<path d="M2310 2846 c0 -17 30 -30 42 -18 5 5 -3 14 -17 20 -20 9 -25 9 -25
-2z"/>
<path d="M2632 2839 c2 -7 10 -15 17 -17 8 -3 12 1 9 9 -2 7 -10 15 -17 17 -8
3 -12 -1 -9 -9z"/>
<path d="M1890 2810 c-36 -3 -78 -12 -93 -18 -16 -7 -39 -9 -53 -6 -16 4 -24
2 -24 -6 0 -9 11 -11 43 -5 71 12 139 18 204 17 51 -1 61 1 57 13 -6 16 -23
17 -134 5z"/>
<path d="M2157 2814 c-4 -4 -23 -7 -43 -8 -22 -1 -39 -7 -42 -15 -4 -11 3 -12
34 -6 22 4 56 8 77 8 25 -1 37 3 37 13 0 14 -50 20 -63 8z"/>
<path d="M2380 2805 c0 -8 5 -15 10 -15 6 0 10 7 10 15 0 8 -4 15 -10 15 -5 0
-10 -7 -10 -15z"/>
<path d="M1617 2793 c-15 -14 -5 -23 25 -23 30 0 31 1 12 15 -22 16 -28 18
-37 8z"/>
<path d="M1532 2773 c4 -22 43 -25 43 -3 0 8 -11 16 -23 18 -19 3 -23 0 -20
-15z"/>
<path d="M2295 2780 c-3 -5 3 -10 15 -10 12 0 18 5 15 10 -3 6 -10 10 -15 10
-5 0 -12 -4 -15 -10z"/>
<path d="M2590 2766 c0 -9 7 -16 16 -16 9 0 14 5 12 12 -6 18 -28 21 -28 4z"/>
<path d="M2343 2754 c-8 -4 -10 -16 -6 -34 4 -25 1 -31 -21 -42 -20 -9 -26
-17 -22 -32 3 -11 -2 -24 -11 -31 -9 -7 -14 -18 -11 -25 3 -10 10 -7 26 10 13
15 20 31 16 42 -3 10 -1 18 5 18 14 0 37 38 45 73 6 27 3 30 -21 21z"/>
<path d="M1850 2730 c-24 -13 -154 -29 -165 -19 -6 4 -17 4 -24 0 -25 -16 6
-21 85 -15 44 3 103 7 132 8 56 3 92 20 44 22 -15 0 -34 3 -42 7 -8 4 -22 2
-30 -3z"/>
<path d="M1970 2718 c0 -17 134 -30 169 -17 19 8 27 6 33 -6 10 -17 28 -11 28
10 0 11 -25 14 -115 17 -63 2 -115 0 -115 -4z"/>
<path d="M2215 2710 c3 -5 13 -10 21 -10 8 0 12 5 9 10 -3 6 -13 10 -21 10 -8
0 -12 -4 -9 -10z"/>
<path d="M1453 2703 c-18 -7 -16 -30 3 -37 8 -3 25 -1 37 6 19 11 20 13 5 16
-10 2 -18 8 -18 13 0 10 -8 10 -27 2z"/>
<path d="M1537 2694 c-10 -10 2 -24 22 -24 9 0 26 7 37 15 18 13 17 14 -17 15
-20 0 -39 -3 -42 -6z"/>
<path d="M2530 2680 c0 -5 10 -14 22 -21 18 -10 20 -9 15 6 -4 9 -7 19 -7 21
0 2 -7 4 -15 4 -8 0 -15 -4 -15 -10z"/>
<path d="M1955 2660 c-11 -5 -37 -9 -57 -9 -20 -1 -40 -5 -43 -11 -8 -13 56
-13 91 1 21 7 34 7 51 -2 17 -9 32 -10 56 -2 29 9 37 7 60 -13 26 -22 28 -23
74 -7 26 9 42 18 35 21 -7 2 -27 -1 -44 -7 -27 -10 -33 -8 -46 10 -12 18 -21
20 -57 14 -26 -3 -46 -2 -50 5 -7 12 -42 12 -70 0z"/>
<path d="M1757 2653 c-12 -11 14 -33 39 -33 28 0 30 6 10 26 -15 15 -38 18
-49 7z"/>
<path d="M1570 2624 c0 -9 5 -14 12 -12 18 6 21 28 4 28 -9 0 -16 -7 -16 -16z"/>
<path d="M1662 2628 c3 -7 12 -14 21 -16 12 -2 15 1 11 12 -7 19 -38 22 -32 4z"/>
<path d="M1448 2623 c-16 -2 -28 -8 -28 -13 0 -15 50 -24 63 -11 8 8 8 11 -2
11 -7 0 -9 5 -6 10 3 6 5 9 3 9 -2 -1 -15 -4 -30 -6z"/>
<path d="M2490 2616 c0 -8 5 -18 10 -21 6 -3 10 3 10 14 0 12 -4 21 -10 21 -5
0 -10 -6 -10 -14z"/>
<path d="M1350 2571 c0 -5 22 -17 49 -26 39 -13 57 -14 97 -5 27 6 104 12 171
13 67 0 119 5 117 9 -8 12 -188 10 -261 -3 -53 -9 -70 -8 -103 5 -45 18 -70
20 -70 7z"/>
<path d="M1837 2572 c-10 -2 -16 -9 -14 -15 4 -15 46 -22 58 -10 11 11 -21 30
-44 25z"/>
<path d="M1948 2573 c-30 -8 -21 -33 11 -33 24 0 28 3 24 20 -3 11 -8 19 -12
19 -3 -1 -14 -3 -23 -6z"/>
<path d="M2046 2571 c-3 -4 6 -19 19 -31 18 -17 28 -21 36 -13 14 14 3 33 -17
33 -8 0 -12 5 -9 10 3 6 -1 10 -9 10 -8 0 -17 -4 -20 -9z"/>
<path d="M2200 2550 c0 -11 5 -20 10 -20 6 0 10 9 10 20 0 11 -4 20 -10 20 -5
0 -10 -9 -10 -20z"/>
<path d="M2444 2557 c3 -10 6 -23 6 -28 0 -5 5 -9 10 -9 14 0 12 13 -6 36 -14
17 -15 17 -10 1z"/>
<path d="M2247 2552 c-10 -2 -16 -9 -14 -15 6 -18 24 -19 31 -1 8 20 6 21 -17
16z"/>
<path d="M1900 2505 c0 -8 9 -19 20 -25 18 -9 20 -8 20 15 0 18 -5 25 -20 25
-11 0 -20 -7 -20 -15z"/>
<path d="M1310 2490 c0 -18 33 -28 64 -19 17 5 58 7 91 4 33 -4 71 -2 85 4
l25 10 -30 2 c-106 6 -235 6 -235 -1z"/>
<path d="M1604 2489 c-8 -14 40 -17 92 -7 46 9 57 8 72 -6 20 -17 42 -21 42
-8 0 20 -50 32 -123 30 -43 -1 -80 -5 -83 -9z"/>
<path d="M2402 2479 c2 -7 10 -15 17 -17 8 -3 12 1 9 9 -2 7 -10 15 -17 17 -8
3 -12 -1 -9 -9z"/>
<path d="M2156 2465 c4 -8 15 -15 26 -15 17 0 18 2 4 15 -8 8 -19 15 -25 15
-6 0 -8 -7 -5 -15z"/>
<path d="M5875 2469 c-17 -4 21 -5 90 -2 66 3 122 7 124 9 8 8 -184 2 -214 -7z"/>
<path d="M2027 2463 c-16 -15 -5 -24 26 -21 17 2 31 7 30 12 -3 12 -47 19 -56
9z"/>
<path d="M5968 2383 c23 -2 61 -2 85 0 23 2 4 4 -43 4 -47 0 -66 -2 -42 -4z"/>
<path d="M6153 2383 c9 -2 23 -2 30 0 6 3 -1 5 -18 5 -16 0 -22 -2 -12 -5z"/>
<path d="M2330 2346 c0 -15 18 -31 26 -23 7 7 -7 37 -17 37 -5 0 -9 -6 -9 -14z"/>
<path d="M2294 2286 c-8 -21 3 -49 16 -41 5 3 10 15 10 25 0 25 -18 36 -26 16z"/>
<path d="M2260 2223 c0 -12 5 -25 11 -28 19 -12 22 3 5 27 l-16 22 0 -21z"/>
<path d="M2222 2159 c2 -7 10 -15 17 -17 8 -3 12 1 9 9 -2 7 -10 15 -17 17 -8
3 -12 -1 -9 -9z"/>
<path d="M2190 2096 c0 -8 5 -18 10 -21 6 -3 10 3 10 14 0 12 -4 21 -10 21 -5
0 -10 -6 -10 -14z"/>
<path d="M2150 2041 c0 -11 5 -23 10 -26 6 -3 10 3 10 14 0 11 -4 23 -10 26
-5 3 -10 -3 -10 -14z"/>
<path d="M2120 1980 c0 -5 7 -10 16 -10 8 0 12 5 9 10 -3 6 -10 10 -16 10 -5
0 -9 -4 -9 -10z"/>
<path d="M2080 1942 c0 -19 12 -42 22 -42 14 0 5 43 -9 48 -7 2 -13 -1 -13 -6z"/>
<path d="M2036 1866 c7 -18 32 -28 46 -20 6 4 1 12 -13 20 -31 17 -40 17 -33
0z"/>
<path d="M1996 1838 c3 -7 16 -21 30 -32 26 -18 26 -18 15 3 -13 24 -54 50
-45 29z"/>
<path d="M5675 1608 c-38 -5 -75 -15 -80 -22 -6 -8 -44 -17 -92 -21 -46 -4
-106 -13 -135 -21 -29 -7 -37 -11 -18 -8 19 2 89 9 154 14 66 6 122 12 124 15
3 3 -3 5 -13 5 -12 0 -15 3 -9 9 5 5 61 14 124 21 63 6 116 13 119 15 7 8 -98
3 -174 -7z"/>
<path d="M5195 1501 c-90 -4 -147 -11 -160 -19 -19 -13 -19 -13 5 -8 14 3 117
11 230 17 113 6 207 13 209 15 5 5 -79 3 -284 -5z"/>
<path d="M410 1341 c0 -6 6 -11 13 -11 130 -5 271 -3 254 3 -37 15 -267 22
-267 8z"/>
<path d="M5170 1270 l-25 -8 25 0 c14 0 34 3 45 8 l20 9 -20 -1 c-11 0 -31 -4
-45 -8z"/>
<path d="M2123 1253 c15 -2 39 -2 55 0 15 2 2 4 -28 4 -30 0 -43 -2 -27 -4z"/>
<path d="M2023 1243 c9 -2 25 -2 35 0 9 3 1 5 -18 5 -19 0 -27 -2 -17 -5z"/>
<path d="M1096 1232 c-3 -6 20 -12 57 -17 88 -10 1096 -16 1130 -7 16 4 -43 7
-135 7 -334 0 -974 13 -1009 20 -22 4 -39 3 -43 -3z"/>
<path d="M830 1220 c0 -5 21 -10 46 -10 27 0 43 4 39 10 -3 6 -24 10 -46 10
-21 0 -39 -4 -39 -10z"/>
<path d="M980 1220 c0 -5 6 -10 14 -10 8 0 18 5 21 10 3 6 -3 10 -14 10 -12 0
-21 -4 -21 -10z"/>
<path d="M672 1208 c23 -6 51 -6 80 0 40 9 38 10 -37 10 -70 0 -76 -1 -43 -10z"/>
<path d="M1513 1173 c9 -2 25 -2 35 0 9 3 1 5 -18 5 -19 0 -27 -2 -17 -5z"/>
<path d="M5358 1173 c12 -2 30 -2 40 0 9 3 -1 5 -23 4 -22 0 -30 -2 -17 -4z"/>
<path d="M5170 1059 c-52 -5 -239 -18 -415 -29 -176 -12 -381 -27 -455 -35
-104 -11 -316 -15 -930 -16 -437 -1 -880 -4 -985 -8 l-190 -6 99 -9 c54 -5
223 -5 375 -1 152 4 553 9 891 10 545 2 640 4 830 23 118 12 305 26 415 32
258 13 453 30 479 40 20 8 20 9 1 8 -11 -1 -63 -5 -115 -9z"/>
<path d="M1890 970 c0 -4 37 -21 83 -38 59 -21 81 -34 79 -45 -1 -9 7 -18 18
-22 29 -9 19 -30 -16 -32 -16 -2 -60 -8 -99 -15 -87 -15 -58 -26 57 -21 42 1
79 -1 82 -6 11 -16 -74 -23 -208 -17 -72 3 -158 2 -191 -2 -45 -6 6 -10 204
-15 260 -7 470 -29 482 -49 8 -12 221 -68 258 -68 14 0 32 -6 40 -14 9 -7 44
-24 79 -36 34 -13 62 -27 62 -31 0 -5 -202 -9 -449 -9 -268 0 -452 -4 -456 -9
-3 -5 -20 -8 -38 -5 -17 2 -90 11 -162 20 -194 23 -212 31 -226 102 l-7 37 -1
-47 c-1 -47 0 -48 47 -71 26 -14 74 -27 107 -31 33 -3 83 -10 110 -15 28 -6
111 -10 185 -11 74 0 155 -5 180 -11 44 -11 185 -21 285 -21 92 1 150 1 170 2
11 0 111 0 223 0 163 0 209 -3 240 -16 39 -17 115 -32 222 -43 36 -4 76 -12
90 -18 14 -6 75 -21 135 -33 60 -12 123 -30 140 -39 16 -10 57 -21 90 -24 52
-4 287 -73 525 -154 125 -42 168 -52 248 -59 51 -4 86 -12 104 -25 15 -10 41
-19 57 -19 16 0 66 -13 111 -30 45 -17 85 -30 89 -30 12 0 33 69 26 90 -4 14
-15 20 -34 20 -16 0 -54 11 -85 25 -65 29 -235 80 -415 125 -139 35 -373 110
-417 134 -29 15 -28 15 41 15 39 0 113 -6 165 -15 230 -36 1581 -48 1519 -14
-8 5 -55 4 -104 -2 -143 -16 -1242 10 -1370 32 -33 6 -136 14 -230 19 -155 6
-175 9 -225 34 l-55 26 90 1 c50 0 128 0 175 1 47 0 308 -2 580 -5 651 -8 637
-8 699 10 64 18 111 61 111 99 0 38 -53 87 -125 115 -67 26 12 23 -1360 50
-319 6 -604 15 -634 21 -30 5 -66 9 -80 8 l-26 -1 25 -9 c15 -5 -53 -6 -165
-3 -369 9 -350 7 -460 52 -140 57 -312 107 -430 126 -137 21 -165 24 -165 16z
m468 -130 c83 -23 152 -46 152 -51 0 -5 -6 -9 -12 -9 -8 0 -6 -4 3 -10 9 -5
34 -9 55 -8 51 2 182 -27 203 -46 9 -8 68 -24 131 -36 63 -12 189 -45 280 -75
91 -29 181 -56 202 -59 62 -11 320 -95 383 -125 33 -16 137 -53 230 -81 94
-29 179 -57 190 -63 10 -5 56 -18 102 -28 45 -10 111 -29 145 -43 39 -16 66
-22 73 -16 7 6 53 -5 128 -31 174 -59 166 -55 160 -78 -7 -29 -53 -27 -112 3
-25 14 -77 30 -116 37 -38 6 -108 25 -155 41 -47 16 -107 33 -135 37 -60 9
-536 159 -550 173 -10 10 -7 10 55 -7 16 -5 22 -4 15 3 -5 5 -32 15 -60 21
-27 7 -54 16 -60 21 -5 5 -62 24 -125 43 -63 19 -143 47 -176 61 -34 14 -90
30 -126 35 -36 5 -108 23 -161 40 -53 17 -122 34 -153 37 -32 4 -77 19 -103
33 -30 17 -83 32 -150 43 -63 11 -137 32 -190 54 -63 27 -110 39 -176 46 -92
10 -202 48 -160 55 11 2 50 -5 85 -16 35 -11 66 -19 68 -16 2 2 -28 14 -67 26
-38 12 -68 26 -65 31 3 5 13 7 22 4 10 -2 86 -23 170 -46z m-108 -60 c11 -7 7
-10 -17 -10 -18 0 -33 5 -33 10 0 13 30 13 50 0z m124 4 c9 -3 16 -10 16 -15
0 -15 -37 -10 -50 6 -10 12 -10 15 3 15 8 0 22 -3 31 -6z m646 -41 c91 -2 185
-4 210 -5 25 -1 81 0 125 2 88 5 1024 -9 1175 -17 115 -6 158 -7 230 -6 104 3
385 -14 416 -24 70 -24 93 -42 100 -80 4 -20 2 -43 -3 -52 -18 -29 -93 -64
-137 -63 -22 1 -338 6 -701 12 -363 6 -724 13 -802 15 -158 5 -215 16 -458 94
-82 27 -186 56 -230 66 -109 23 -205 54 -205 67 0 7 19 8 58 3 31 -5 131 -10
222 -12z m-385 -73 c3 -5 -1 -10 -9 -10 -9 0 -16 5 -16 10 0 6 4 10 9 10 6 0
13 -4 16 -10z m244 -69 c7 -5 9 -11 5 -14 -10 -5 -54 9 -54 18 0 8 34 6 49 -4z
m-440 -69 c15 -2 10 -14 -6 -14 -4 0 -13 -4 -20 -10 -8 -6 -31 -6 -69 2 -31 7
-76 9 -100 5 -45 -6 -117 2 -110 14 4 5 266 8 305 3z m841 -18 l35 -14 -39 5
c-22 2 -44 9 -50 15 -14 14 11 12 54 -6z m1570 -440 c0 -16 -23 -44 -35 -44
-15 0 -21 31 -8 43 8 8 43 9 43 1z"/>
<path d="M5488 914 c-4 -3 -125 -12 -270 -20 -380 -22 -2252 -28 -2423 -8 -66
7 -138 13 -160 13 l-40 -1 35 -8 c97 -23 327 -30 1130 -36 601 -4 942 -3 1090
5 377 20 654 41 664 51 7 7 4 10 -5 10 -9 0 -18 -3 -21 -6z"/>
<path d="M2930 810 c57 -14 127 -22 110 -11 -8 5 -44 11 -80 15 -48 4 -56 3
-30 -4z"/>
<path d="M1584 744 c-18 -14 -18 -14 6 -3 31 14 36 19 24 19 -6 0 -19 -7 -30
-16z"/>
<path d="M1500 710 c0 -5 4 -10 9 -10 6 0 13 5 16 10 3 6 -1 10 -9 10 -9 0
-16 -4 -16 -10z"/>
</g>
</svg>
